<svg width="22" height="27" viewBox="0 0 22 27" fill="none" xmlns="http://www.w3.org/2000/svg">
<path d="M10.8336 13.0242C12.5787 13.0242 14.0897 12.4071 15.3244 11.1896C16.559 9.97222 17.1849 8.48271 17.1849 6.76192C17.1849 5.04171 16.559 3.55201 15.3242 2.33426C14.0893 1.11711 12.5785 0.5 10.8336 0.5C9.08837 0.5 7.5777 1.11711 6.34305 2.33446C5.1084 3.55181 4.48232 5.04151 4.48232 6.76192C4.48232 8.48271 5.1084 9.97242 6.34325 11.1898C7.5781 12.4069 9.08898 13.0242 10.8336 13.0242ZM21.9467 20.4926C21.9111 19.986 21.8391 19.4333 21.733 18.8497C21.626 18.2618 21.4882 17.706 21.3232 17.198C21.1528 16.6729 20.9211 16.1544 20.6346 15.6575C20.3372 15.1417 19.988 14.6927 19.5961 14.3231C19.1863 13.9365 18.6845 13.6257 18.1043 13.3989C17.5261 13.1734 16.8854 13.0591 16.1999 13.0591C15.9308 13.0591 15.6704 13.168 15.1677 13.4908C14.8583 13.6897 14.4963 13.9198 14.0924 14.1743C13.7469 14.3913 13.279 14.5947 12.701 14.7787C12.1371 14.9587 11.5645 15.0499 10.9994 15.0499C10.4343 15.0499 9.86192 14.9587 9.2974 14.7787C8.72001 14.5949 8.25206 14.3915 7.90704 14.1745C7.50689 13.9224 7.14476 13.6923 6.83071 13.4906C6.32857 13.1678 6.06804 13.0589 5.79885 13.0589C5.11323 13.0589 4.47267 13.1734 3.89467 13.3991C3.31487 13.6255 2.81292 13.9363 2.40271 14.3233C2.01101 14.6931 1.66156 15.1419 1.36461 15.6575C1.07833 16.1544 0.846572 16.6727 0.67597 17.1982C0.511202 17.7062 0.373393 18.2618 0.266364 18.8497C0.160342 19.4325 0.0883187 19.9854 0.0527096 20.4932C0.017704 20.9907 0 21.507 0 22.0285C0 23.3857 0.43757 24.4844 1.30044 25.2947C2.15264 26.0943 3.28026 26.5 4.65152 26.5H17.3485C18.7197 26.5 19.847 26.0945 20.6994 25.2947C21.5624 24.485 22 23.3861 22 22.0283C21.9998 21.5044 21.9819 20.9877 21.9467 20.4926Z" fill="white"/>
</svg>
