<svg width="33" height="27" viewBox="0 0 33 27" fill="none" xmlns="http://www.w3.org/2000/svg">
<path d="M32.4058 11.8921L28.5958 4.78357H31.3572C31.8465 4.78357 32.266 4.35706 32.266 3.85947C32.266 3.36188 31.8465 2.93537 31.3572 2.93537H19.6475C19.1582 1.15825 17.3056 0.127515 15.5579 0.625109C14.4394 0.944991 13.6005 1.83355 13.2859 2.93537H1.61121C1.12185 2.93537 0.702403 3.36188 0.702403 3.85947C0.702403 4.35706 1.12185 4.78357 1.61121 4.78357H4.37258L0.562587 11.8921C0.213046 12.0342 -0.0316332 12.3897 0.00332092 12.7806C0.00332092 16.0861 2.65983 18.7873 5.91057 18.7873C9.1613 18.7873 11.8178 16.0861 11.8178 12.7806C11.8178 12.3897 11.5731 12.0698 11.2585 11.9276L7.41359 4.74803H13.3558C13.6704 5.84985 14.5093 6.73841 15.6278 7.05829V20.4222C13.181 20.8488 11.3984 23.0524 11.3984 25.5759C11.3984 26.0735 11.8178 26.5 12.3072 26.5H20.801C21.2904 26.5 21.7098 26.0735 21.7098 25.5759C21.7098 23.0524 19.9272 20.8843 17.4804 20.4222V7.09383C18.564 6.77395 19.4378 5.92093 19.7524 4.78357H25.6946L21.7797 11.8921C21.3952 12.0342 21.1506 12.3897 21.1855 12.7806C21.1855 16.0861 23.842 18.7873 27.0928 18.7873C30.3435 18.7873 33 16.0861 33 12.7806C33 12.3897 32.7903 12.0342 32.4058 11.8921ZM9.1613 11.821H2.65983L5.91057 5.74322L9.1613 11.821ZM23.877 11.821L27.1277 5.74322L30.3784 11.821H23.877Z" fill="white"/>
</svg>
