<svg width="26" height="27" viewBox="0 0 26 27" fill="none" xmlns="http://www.w3.org/2000/svg">
<path d="M17.3631 3.4747C13.3966 -0.491567 6.94079 -0.491567 2.97425 3.4747C-0.991418 7.44183 -0.991418 13.8964 2.97425 17.8635C6.50656 21.3947 12.0079 21.773 15.9719 19.0156C16.0553 19.4103 16.2462 19.7869 16.5532 20.0938L22.3297 25.87C23.1715 26.71 24.5318 26.71 25.3693 25.87C26.2102 25.0291 26.2102 23.6689 25.3693 22.8306L19.5928 17.0527C19.2875 16.7483 18.91 16.5566 18.5154 16.4732C21.2746 12.5086 20.8963 7.00849 17.3631 3.4747ZM15.5394 16.0399C12.578 19.001 7.75851 19.001 4.79802 16.0399C1.83838 13.0787 1.83838 8.26036 4.79802 5.2992C7.75851 2.3389 12.578 2.3389 15.5394 5.2992C18.5007 8.26036 18.5007 13.0787 15.5394 16.0399Z" fill="white"/>
</svg>
