<svg width="14" height="7" viewBox="0 0 14 7" fill="none" xmlns="http://www.w3.org/2000/svg">
<path d="M7.49928 6.55673L7.49939 6.55663L13.0344 1.41807L13.0344 1.41802C13.3224 1.15055 13.3218 0.70908 13.033 0.442242L13.033 0.442188C12.7551 0.185594 12.3125 0.186268 12.0355 0.443493L12.0355 0.443498L6.99998 5.11828L1.96453 0.443327L1.9645 0.443298C1.6874 0.186123 1.24502 0.185449 0.967165 0.441992L0.967081 0.442069C0.825034 0.573342 0.75 0.750135 0.75 0.930689C0.75 1.11071 0.824522 1.28689 0.965672 1.418L0.965723 1.41805L6.50038 6.55643C6.50042 6.55647 6.50047 6.55652 6.50052 6.55656C6.63595 6.68252 6.81614 6.75 6.99998 6.75C7.18417 6.75 7.36402 6.68216 7.49928 6.55673Z" fill="white" stroke="white" stroke-width="0.5"/>
</svg>
