<svg width="45" height="19" viewBox="0 0 45 19" fill="none" xmlns="http://www.w3.org/2000/svg">
<path d="M21.6153 9.388V14.5081H19.9796V1.86364H24.3176C24.8354 1.8529 25.3503 1.9441 25.8324 2.13198C26.3145 2.31986 26.7544 2.6007 27.1267 2.9583C27.5027 3.29418 27.8019 3.7061 28.0043 4.16638C28.2067 4.62666 28.3076 5.12463 28.3001 5.62683C28.3108 6.13171 28.2115 6.63293 28.009 7.09615C27.8065 7.55936 27.5055 7.9736 27.1267 8.31049C26.3681 9.02883 25.4318 9.38766 24.3176 9.38699H21.6153V9.388ZM21.6153 3.42037V7.83429H24.3583C24.659 7.84315 24.9582 7.78957 25.2369 7.677C25.5156 7.56442 25.7675 7.39533 25.9766 7.18053C26.1846 6.9797 26.35 6.73948 26.4629 6.47409C26.5758 6.20869 26.634 5.92351 26.634 5.6354C26.634 5.3473 26.5758 5.06211 26.4629 4.79672C26.35 4.53133 26.1846 4.29111 25.9766 4.09028C25.7702 3.87095 25.5191 3.69771 25.2401 3.58205C24.9611 3.46638 24.6605 3.41093 24.3583 3.41936H21.6153V3.42037Z" fill="#5F6368"/>
<path d="M32.069 5.57422C33.278 5.57422 34.2323 5.89505 34.9319 6.53671C35.6315 7.17836 35.981 8.05812 35.9803 9.17598V14.508H34.4158V13.3074H34.3447C33.6674 14.2961 32.7666 14.7905 31.6423 14.7905C30.6826 14.7905 29.8797 14.508 29.2336 13.943C28.9235 13.6837 28.6756 13.359 28.5079 12.9924C28.3402 12.6259 28.257 12.2268 28.2644 11.8243C28.2644 10.9291 28.605 10.2172 29.2864 9.6885C29.9677 9.15984 30.8773 8.89483 32.0152 8.89349C32.9864 8.89349 33.7863 9.07005 34.4148 9.42316V9.05189C34.4166 8.77748 34.357 8.50611 34.2401 8.25745C34.1233 8.00878 33.9522 7.78906 33.7392 7.61421C33.3067 7.22667 32.743 7.01521 32.1604 7.02199C31.2468 7.02199 30.5238 7.40469 29.9914 8.17011L28.5509 7.26917C29.3433 6.1392 30.516 5.57422 32.069 5.57422ZM29.9528 11.8596C29.9517 12.0664 30.0004 12.2704 30.0948 12.4546C30.1891 12.6389 30.3265 12.7981 30.4953 12.919C30.8571 13.2016 31.3061 13.3513 31.7663 13.3427C32.4565 13.3416 33.1181 13.0688 33.6061 12.584C34.1479 12.0776 34.4189 11.4833 34.4189 10.8013C33.9089 10.3978 33.1977 10.196 32.2854 10.196C31.621 10.196 31.067 10.355 30.6233 10.6732C30.1753 10.996 29.9528 11.3885 29.9528 11.8596Z" fill="#5F6368"/>
<path d="M44.9612 5.85645L39.4996 18.3214H37.8111L39.8379 13.9599L36.2466 5.85645H38.0245L40.6202 12.0712H40.6557L43.1803 5.85645H44.9612Z" fill="#5F6368"/>
<path d="M15.0057 8.28415C15.0063 7.78914 14.9642 7.29499 14.8797 6.80713H7.98157V9.6048H11.9325C11.8517 10.0516 11.6805 10.4776 11.4295 10.857C11.1784 11.2363 10.8526 11.5613 10.4716 11.8123V13.6283H12.8296C14.2102 12.3641 15.0057 10.4946 15.0057 8.28415Z" fill="#4285F4"/>
<path d="M7.98151 15.3831C9.95546 15.3831 11.6175 14.7394 12.8295 13.6296L10.4715 11.8136C9.81526 12.2555 8.97001 12.5077 7.98151 12.5077C6.0736 12.5077 4.45421 11.2305 3.87513 9.50928H1.44604V11.3808C2.05486 12.5839 2.9884 13.5952 4.14246 14.302C5.29652 15.0087 6.62566 15.383 7.98151 15.3831Z" fill="#34A853"/>
<path d="M3.87508 9.50847C3.56894 8.60656 3.56894 7.62986 3.87508 6.72795V4.85645H1.446C0.933844 5.86852 0.667114 6.98552 0.667114 8.11821C0.667114 9.2509 0.933844 10.3679 1.446 11.38L3.87508 9.50847Z" fill="#FBBC04"/>
<path d="M7.98151 3.72984C9.02465 3.71291 10.0326 4.10432 10.7875 4.81945L12.8752 2.74616C11.5514 1.51135 9.7976 0.833416 7.98151 0.85448C6.62566 0.854542 5.29652 1.22884 4.14246 1.93558C2.9884 2.64232 2.05486 3.65369 1.44604 4.85677L3.87513 6.72828C4.45421 5.0071 6.0736 3.72984 7.98151 3.72984Z" fill="#EA4335"/>
</svg>
