<svg width="31" height="19" viewBox="0 0 31 19" fill="none" xmlns="http://www.w3.org/2000/svg">
<path d="M30.5359 9.16081C30.5359 14.1875 26.4487 18.3216 21.375 18.3216C16.3483 18.3216 12.2142 14.1875 12.2142 9.16081C12.2142 4.13411 16.3014 0 21.3281 0C26.4487 0 30.5359 4.13411 30.5359 9.16081Z" fill="#F9B50B"/>
<path d="M18.2746 9.20779C18.2746 8.55009 18.1807 7.89239 18.0867 7.28167H12.4493C12.4963 6.95282 12.5902 6.67095 12.6842 6.29512H17.7109C17.6169 5.96627 17.476 5.63742 17.3351 5.30857H13.06C13.201 4.97972 13.3889 4.69785 13.5768 4.32202H16.8183C16.6304 3.99317 16.3955 3.66432 16.1136 3.33547H14.3284C14.6103 3.00663 14.8922 2.72475 15.268 2.3959C13.6707 0.892592 11.5097 0 9.11383 0C4.13411 0.140936 0 4.13411 0 9.16081C0 14.1875 4.08713 18.3216 9.16081 18.3216C11.5567 18.3216 13.6707 17.3821 15.315 15.9257C15.6438 15.6438 15.9257 15.315 16.2546 14.9392H14.3754C14.1405 14.6573 13.9056 14.3284 13.7177 13.9996H16.9123C17.1002 13.7177 17.2881 13.3889 17.429 13.0131H13.154C13.013 12.7312 12.8721 12.4023 12.7782 12.0265H17.8049C18.0867 11.1809 18.2746 10.2413 18.2746 9.20779Z" fill="#C8191C"/>
<path d="M12.4023 11.5094L12.5432 10.6638C12.4962 10.6638 12.4023 10.7108 12.3083 10.7108C11.9795 10.7108 11.9325 10.5229 11.9795 10.4289L12.2613 8.73769H12.7781L12.919 7.79812H12.4493L12.5432 7.23438H11.5567C11.5567 7.23438 10.9929 10.4289 10.9929 10.8047C10.9929 11.3685 11.3218 11.6504 11.7916 11.6504C12.0734 11.6504 12.3083 11.5564 12.4023 11.5094Z" fill="white"/>
<path d="M12.7312 9.95908C12.7312 11.3215 13.6708 11.6503 14.4224 11.6503C15.1271 11.6503 15.456 11.5094 15.456 11.5094L15.6439 10.5698C15.6439 10.5698 15.1271 10.8047 14.6103 10.8047C13.5298 10.8047 13.7178 10.0061 13.7178 10.0061H15.6908C15.6908 10.0061 15.8318 9.39534 15.8318 9.11347C15.8318 8.50275 15.5029 7.70411 14.4224 7.70411C13.4829 7.65714 12.7312 8.73764 12.7312 9.95908ZM14.4224 8.54973C14.9392 8.54973 14.8452 9.16045 14.8452 9.20743H13.7647C13.8117 9.16045 13.9057 8.54973 14.4224 8.54973Z" fill="white"/>
<path d="M20.5766 11.51L20.7645 10.4295C20.7645 10.4295 20.2947 10.6644 19.9189 10.6644C19.2612 10.6644 18.9323 10.1476 18.9323 9.53687C18.9323 8.36241 19.4961 7.75169 20.2008 7.75169C20.6705 7.75169 21.0933 8.03356 21.0933 8.03356L21.2343 7.00003C21.2343 7.00003 20.6705 6.76514 20.1068 6.76514C18.9793 6.76514 17.8988 7.75169 17.8988 9.58385C17.8988 10.8053 18.4625 11.6039 19.637 11.6039C20.0598 11.6509 20.5766 11.51 20.5766 11.51Z" fill="white"/>
<path d="M7.09376 7.65723C6.43606 7.65723 5.9193 7.84514 5.9193 7.84514L5.77836 8.69075C5.77836 8.69075 6.20117 8.50284 6.85887 8.50284C7.18772 8.50284 7.46959 8.54982 7.46959 8.83169C7.46959 9.0196 7.42261 9.06658 7.42261 9.06658H6.9998C6.15419 9.06658 5.2616 9.39543 5.2616 10.5229C5.2616 11.4155 5.82534 11.6034 6.20117 11.6034C6.85887 11.6034 7.18772 11.1806 7.23469 11.1806L7.18772 11.5564H7.98635L8.36218 8.87867C8.36218 7.70421 7.42261 7.65723 7.09376 7.65723ZM7.28167 9.81824C7.28167 9.95917 7.18772 10.7578 6.62397 10.7578C6.3421 10.7578 6.24815 10.5229 6.24815 10.382C6.24815 10.1471 6.38908 9.81824 7.14074 9.81824C7.23469 9.81824 7.28167 9.81824 7.28167 9.81824Z" fill="white"/>
<path d="M9.30166 11.6035C9.53655 11.6035 10.758 11.6505 10.758 10.3351C10.758 9.11366 9.58353 9.34856 9.58353 8.87877C9.58353 8.64388 9.77145 8.54992 10.1003 8.54992C10.2412 8.54992 10.758 8.5969 10.758 8.5969L10.8989 7.70431C10.8989 7.70431 10.5701 7.61035 9.95936 7.61035C9.25468 7.61035 8.50303 7.89222 8.50303 8.87877C8.50303 10.0063 9.72447 9.9123 9.72447 10.3351C9.72447 10.617 9.39562 10.664 9.16072 10.664C8.73792 10.664 8.26813 10.523 8.26813 10.523L8.1272 11.4156C8.22115 11.5096 8.50303 11.6035 9.30166 11.6035Z" fill="white"/>
<path d="M28.657 6.90625L28.4691 8.22165C28.4691 8.22165 28.0932 7.75186 27.5295 7.75186C26.6369 7.75186 25.8853 8.83237 25.8853 10.1008C25.8853 10.8994 26.2611 11.6981 27.1067 11.6981C27.6704 11.6981 28.0463 11.3222 28.0463 11.3222L27.9993 11.6511H28.9858L29.6905 7.00021L28.657 6.90625ZM28.1872 9.44309C28.1872 9.95985 27.9523 10.6645 27.3886 10.6645C27.0597 10.6645 26.8718 10.3827 26.8718 9.8659C26.8718 9.06726 27.2007 8.59748 27.6704 8.59748C27.9993 8.64445 28.1872 8.87935 28.1872 9.44309Z" fill="white"/>
<path d="M1.78515 11.5571L2.34889 8.08071L2.44285 11.5571H3.10055L4.36897 8.08071L3.85221 11.5571H4.88573L5.68437 6.90625H4.0871L3.10055 9.77194L3.05357 6.90625H1.64422L0.845581 11.5571H1.78515Z" fill="white"/>
<path d="M16.8184 11.5567C17.1003 9.95946 17.1473 8.64406 17.8519 8.87895C17.9459 8.26823 18.0868 7.98636 18.1808 7.75146H17.9929C17.5701 7.75146 17.1942 8.31521 17.1942 8.31521L17.2882 7.79844H16.3486L15.7379 11.5567H16.8184Z" fill="white"/>
<path d="M22.8317 7.65723C22.174 7.65723 21.6572 7.84514 21.6572 7.84514L21.5163 8.69075C21.5163 8.69075 21.9391 8.50284 22.5968 8.50284C22.9256 8.50284 23.2075 8.54982 23.2075 8.83169C23.2075 9.0196 23.1605 9.06658 23.1605 9.06658H22.7377C21.8921 9.06658 20.9995 9.39543 20.9995 10.5229C20.9995 11.4155 21.5633 11.6034 21.9391 11.6034C22.5968 11.6034 22.9256 11.1806 22.9726 11.1806L22.9256 11.5564H23.8182L24.1941 8.87867C24.1941 7.70421 23.1605 7.65723 22.8317 7.65723ZM23.0666 9.81824C23.0666 9.95917 22.9726 10.7578 22.4089 10.7578C22.127 10.7578 22.033 10.5229 22.033 10.382C22.033 10.1471 22.174 9.81824 22.9256 9.81824C23.0196 9.81824 23.0196 9.81824 23.0666 9.81824Z" fill="white"/>
<path d="M24.9456 11.5567C25.2275 9.95946 25.2745 8.64406 25.9791 8.87895C26.0731 8.26823 26.214 7.98636 26.308 7.75146H26.1201C25.6973 7.75146 25.3214 8.31521 25.3214 8.31521L25.4154 7.79844H24.4758L23.8651 11.5567H24.9456Z" fill="white"/>
</svg>
