<svg width="63" height="16" viewBox="0 0 63 16" fill="none" xmlns="http://www.w3.org/2000/svg">
<path d="M24.3843 6.76007C24.2241 7.96154 23.263 7.96154 22.3819 7.96154H21.9013L22.3018 5.6387C22.3018 5.4785 22.462 5.3984 22.6222 5.3984H22.8625C23.5033 5.3984 24.064 5.39841 24.3843 5.7188C24.3843 6.03919 24.3843 6.35958 24.3843 6.76007ZM23.9839 3.55615H20.5396C20.2993 3.55615 20.1392 3.71635 20.0591 3.95664L18.6974 12.7674C18.6974 12.9276 18.7775 13.0878 19.0178 13.0878H20.6197C20.86 13.0878 21.0202 12.9276 21.1003 12.6873L21.5008 10.2844C21.5008 10.0441 21.7411 9.88389 21.9814 9.88389H23.1028C25.3455 9.88389 26.6271 8.76252 27.0276 6.59987C27.1878 5.6387 27.0276 4.91782 26.6271 4.35713C25.9863 3.87654 25.1052 3.55615 23.9839 3.55615Z" fill="#263577"/>
<path d="M31.9137 9.96372C31.7535 10.9249 31.0326 11.5657 30.0715 11.5657C29.5909 11.5657 29.1904 11.4055 28.9501 11.0851C28.7098 10.7647 28.6297 10.3642 28.7098 9.96372C28.87 9.00255 29.5909 8.36176 30.5521 8.36176C31.0326 8.36176 31.4331 8.52196 31.6734 8.84235C31.8336 9.08264 31.9938 9.48313 31.9137 9.96372ZM34.1565 6.75981H32.5545C32.3943 6.75981 32.3142 6.8399 32.2341 7.0001L32.154 7.48069L32.0739 7.32049C31.7535 6.8399 30.9525 6.59961 30.1516 6.59961C28.3093 6.59961 26.7874 7.96128 26.4671 9.88363C26.3069 10.8448 26.5471 11.7259 27.1078 12.3667C27.5884 12.9273 28.3093 13.1676 29.1904 13.1676C30.6321 13.1676 31.4331 12.2065 31.4331 12.2065L31.353 12.6871C31.353 12.8472 31.4331 13.0074 31.6734 13.0074H33.1152C33.3555 13.0074 33.5157 12.8472 33.5958 12.607L34.4768 7.0001C34.4768 6.92 34.3968 6.75981 34.1565 6.75981Z" fill="#263577"/>
<path d="M42.8871 6.75977H41.205C41.0448 6.75977 40.8846 6.83986 40.8045 7.00006L38.5618 10.3642L37.6006 7.16026C37.5205 6.91996 37.3603 6.83986 37.12 6.83986H35.5181C35.3579 6.83986 35.1977 7.00006 35.2778 7.24035L37.12 12.5268L35.438 14.9298C35.2778 15.0899 35.438 15.4103 35.6783 15.4103H37.3603C37.5205 15.4103 37.6807 15.3302 37.7608 15.17L43.2075 7.24035C43.2876 7.00006 43.1274 6.75977 42.8871 6.75977Z" fill="#263577"/>
<path d="M48.7342 6.76007C48.574 7.96154 47.6128 7.96154 46.7318 7.96154H46.2512L46.6516 5.6387C46.6516 5.4785 46.8119 5.3984 46.9721 5.3984H47.2123C47.8531 5.3984 48.4138 5.39841 48.7342 5.7188C48.8143 6.03919 48.8143 6.35958 48.7342 6.76007ZM48.3337 3.55615H44.8895C44.6492 3.55615 44.489 3.71635 44.4089 3.95664L43.0472 12.7674C43.0472 12.9276 43.1274 13.0878 43.3677 13.0878H45.1298C45.29 13.0878 45.4502 13.0077 45.4502 12.7674L45.8507 10.2844C45.8507 10.0441 46.091 9.88389 46.3313 9.88389H47.4526C49.6954 9.88389 50.977 8.76252 51.3774 6.59987C51.5376 5.6387 51.3774 4.91782 50.977 4.35713C50.4163 3.87654 49.5352 3.55615 48.3337 3.55615Z" fill="#2199D6"/>
<path d="M56.3436 9.96372C56.1834 10.9249 55.4626 11.5657 54.5014 11.5657C54.0208 11.5657 53.6203 11.4055 53.38 11.0851C53.1397 10.7647 53.0596 10.3642 53.1397 9.96372C53.2999 9.00255 54.0208 8.36176 54.982 8.36176C55.4626 8.36176 55.8631 8.52196 56.1034 8.84235C56.2635 9.08264 56.4237 9.48313 56.3436 9.96372ZM58.5864 6.75981H56.9844C56.8242 6.75981 56.7441 6.8399 56.664 7.0001L56.5839 7.48069L56.5038 7.32049C56.1834 6.8399 55.3825 6.59961 54.5815 6.59961C52.7392 6.59961 51.2174 7.96128 50.897 9.88363C50.7368 10.8448 50.9771 11.7259 51.5378 12.3667C52.0183 12.9273 52.7392 13.1676 53.6203 13.1676C55.0621 13.1676 55.863 12.2065 55.863 12.2065L55.783 12.6871C55.783 12.8472 55.8631 13.0074 56.1034 13.0074H57.5451C57.7854 13.0074 57.9456 12.8472 58.0257 12.607L58.9068 7.0001C58.9068 6.92 58.7466 6.75981 58.5864 6.75981Z" fill="#2199D6"/>
<path d="M60.5084 3.79645L59.0667 12.7674C59.0667 12.9276 59.1468 13.0878 59.3871 13.0878H60.8288C61.0691 13.0878 61.2293 12.9276 61.3094 12.6873L62.6711 3.87655C62.6711 3.71635 62.591 3.55615 62.3507 3.55615H60.7487C60.6686 3.55615 60.5885 3.71635 60.5084 3.79645Z" fill="#2199D6"/>
<path d="M4.43999 14.7701L4.68027 13.088H4.11959H1.31616L3.23852 0.833026C3.23852 0.833026 3.23851 0.75293 3.31861 0.75293H3.39871H8.12449C9.64635 0.75293 10.7677 1.07332 11.3284 1.71411C11.5687 2.0345 11.7289 2.35489 11.809 2.67528C11.8891 3.07577 11.8891 3.47626 11.809 4.03694V4.35734L12.0493 4.51753C12.2896 4.59763 12.4498 4.75783 12.61 4.91802C12.8503 5.15832 13.0105 5.47871 13.0105 5.8792C13.0906 6.27969 13.0906 6.76027 12.9304 7.32096C12.7702 7.96174 12.61 8.44233 12.3697 8.92291C12.1294 9.3234 11.809 9.6438 11.4886 9.96419C11.1682 10.2045 10.6876 10.3647 10.2871 10.5249C9.80654 10.605 9.32596 10.6851 8.76527 10.6851H8.36478C8.12449 10.6851 7.8842 10.7652 7.6439 10.9254C7.48371 11.0856 7.32351 11.3259 7.24341 11.5661V11.7263L6.76282 14.69V14.7701V14.8502C6.76282 14.8502 6.76282 14.8502 6.68272 14.8502H4.43999V14.7701Z" fill="#263577"/>
<path d="M12.3696 4.03662C12.3696 4.11672 12.3696 4.19682 12.2895 4.27692C11.6487 7.48083 9.56621 8.5221 6.84288 8.5221H5.48121C5.16081 8.5221 4.84043 8.7624 4.84043 9.08279L4.11954 13.5683L3.95935 14.8498C3.95935 15.0901 4.11954 15.2503 4.27974 15.2503H6.76278C7.08317 15.2503 7.32346 15.01 7.32346 14.7697V14.6096L7.80405 11.726V11.5658C7.88415 11.2454 8.12444 11.0852 8.36474 11.0852H8.76523C11.1682 11.0852 13.0104 10.1241 13.491 7.32064C13.7313 6.11917 13.5711 5.15799 13.0104 4.51721C12.8502 4.35701 12.6099 4.19682 12.3696 4.03662Z" fill="#2199D6"/>
<path d="M11.729 3.79645C11.6489 3.79645 11.5688 3.71635 11.4086 3.71635C11.3285 3.71635 11.1683 3.63625 11.0882 3.63625C10.6877 3.55615 10.2872 3.55615 9.88674 3.55615H6.20224C6.12214 3.55615 6.04204 3.55615 5.96194 3.63625C5.80175 3.71635 5.64156 3.87654 5.64156 4.03674L4.84058 9.00281V9.16301C4.92067 8.84262 5.16096 8.60232 5.48135 8.60232H6.84302C9.56635 8.60232 11.6489 7.48095 12.2897 4.35713C12.2897 4.27703 12.2897 4.19694 12.3698 4.11684C12.2096 4.03674 12.0494 3.95664 11.8892 3.87655C11.8091 3.79645 11.729 3.79645 11.729 3.79645Z" fill="#252C5E"/>
<path d="M5.64145 4.03608C5.64145 3.87589 5.80164 3.71569 5.96183 3.63559C6.04193 3.63559 6.12203 3.5555 6.20213 3.5555H9.88663C10.2871 3.5555 10.7677 3.5555 11.0881 3.63559C11.1682 3.63559 11.3284 3.6356 11.4085 3.71569C11.4886 3.71569 11.5687 3.79579 11.7289 3.79579C11.809 3.79579 11.809 3.79579 11.8891 3.87589C12.0493 3.95599 12.2095 4.03609 12.3697 4.11618C12.5299 2.91472 12.3697 2.11373 11.7289 1.39285C11.008 0.591874 9.72643 0.271484 8.12447 0.271484H3.3987C3.07831 0.271484 2.75792 0.511776 2.75792 0.832167L0.835571 13.1672C0.835571 13.4075 0.995767 13.6478 1.23606 13.6478H4.11958L4.84047 9.00216L5.64145 4.03608Z" fill="#263577"/>
</svg>
