<svg width="50" height="16" viewBox="0 0 50 16" fill="none" xmlns="http://www.w3.org/2000/svg">
<path d="M46.5234 0.487793H43.4237C42.4865 0.487793 41.7656 0.776145 41.3331 1.71329L35.4219 15.1938H39.603C39.603 15.1938 40.3239 13.3916 40.468 12.959C40.9006 12.959 45.0096 12.959 45.5863 12.959C45.7305 13.4637 46.0909 15.1217 46.0909 15.1217H49.8395L46.5234 0.487793ZM41.6215 9.93134C41.9819 9.06628 43.2074 5.82231 43.2074 5.82231C43.2074 5.8944 43.5678 4.95726 43.712 4.45264L44.0004 5.75023C44.0004 5.75023 44.7933 9.28255 44.9375 10.0034H41.6215V9.93134Z" fill="#3362AB"/>
<path d="M35.7101 10.3638C35.7101 13.3915 32.9707 15.41 28.7175 15.41C26.9153 15.41 25.1852 15.0496 24.248 14.617L24.8248 11.301L25.3294 11.5172C26.627 12.0939 27.492 12.3102 29.0779 12.3102C30.2314 12.3102 31.4569 11.8777 31.4569 10.8684C31.4569 10.2196 30.9522 9.78712 29.3663 9.06624C27.8525 8.34536 25.834 7.19195 25.834 5.10139C25.834 2.21786 28.6454 0.271484 32.6103 0.271484C34.1241 0.271484 35.4217 0.559837 36.2147 0.920278L35.638 4.09216L35.3496 3.8038C34.6287 3.51545 33.6916 3.2271 32.3219 3.2271C30.8081 3.29919 30.0872 3.94798 30.0872 4.52468C30.0872 5.17348 30.9522 5.67809 32.3219 6.32689C34.6287 7.40821 35.7101 8.63371 35.7101 10.3638Z" fill="#3362AB"/>
<path d="M0.531372 0.632591L0.60346 0.344238H6.80304C7.6681 0.344238 8.31689 0.632591 8.53316 1.56974L9.90283 8.05767C8.53316 4.59744 5.36128 1.786 0.531372 0.632591Z" fill="#F9B50B"/>
<path d="M18.6255 0.488104L12.3538 15.122H8.10062L4.49622 2.86701C7.09139 4.52504 9.25403 7.12021 10.047 8.92241L10.4795 10.4363L14.3723 0.416016H18.6255V0.488104Z" fill="#3362AB"/>
<path d="M20.2833 0.416016H24.2482L21.7251 15.122H17.7603L20.2833 0.416016Z" fill="#3362AB"/>
</svg>
