<svg width="33" height="33" fill="none" xmlns="http://www.w3.org/2000/svg"><path d="M24.067 0H8.933C4.007 0 0 4.007 0 8.933v15.134C0 28.993 4.007 33 8.933 33h15.134C28.993 33 33 28.993 33 24.067V8.933C33 4.007 28.993 0 24.067 0zM16.5 25.523c-4.976 0-9.023-4.047-9.023-9.023s4.047-9.023 9.023-9.023 9.023 4.047 9.023 9.023-4.047 9.023-9.023 9.023zm9.239-15.918a2.67 2.67 0 01-2.666-2.666 2.67 2.67 0 012.666-2.667 2.67 2.67 0 012.666 2.667 2.67 2.67 0 01-2.666 2.666z" fill="#FF64AE"/><path d="M16.5 9.411A7.097 7.097 0 009.412 16.5c0 3.908 3.18 7.088 7.088 7.088a7.097 7.097 0 007.09-7.088 7.097 7.097 0 00-7.09-7.09zm9.24-3.204a.733.733 0 10.001 1.465.733.733 0 00-.002-1.465z" fill="#FF64AE"/></svg>