<svg width="33" height="27" fill="none" xmlns="http://www.w3.org/2000/svg"><path d="M32.406 11.892l-3.81-7.108h2.761c.49 0 .909-.427.909-.925 0-.497-.42-.924-.909-.924h-11.71a3.316 3.316 0 00-4.09-2.31c-1.118.32-1.957 1.209-2.271 2.31H1.61c-.49 0-.909.427-.909.924 0 .498.42.925.91.925h2.76l-3.81 7.108a.888.888 0 00-.559.889c0 3.305 2.657 6.006 5.908 6.006 3.25 0 5.907-2.7 5.907-6.006a.942.942 0 00-.56-.853l-3.844-7.18h5.942c.314 1.102 1.153 1.99 2.272 2.31v13.364c-2.447.427-4.23 2.63-4.23 5.154 0 .497.42.924.91.924H20.8c.49 0 .909-.427.909-.924 0-2.524-1.783-4.692-4.23-5.154V7.094a3.33 3.33 0 002.272-2.31h5.943l-3.915 7.108c-.385.142-.63.498-.595.889 0 3.305 2.657 6.006 5.908 6.006 3.25 0 5.907-2.7 5.907-6.006 0-.391-.21-.747-.594-.889zM9.16 11.821h-6.5l3.25-6.078 3.251 6.078zm14.716 0l3.25-6.078 3.251 6.078h-6.501z" fill="#fff"/></svg>