<svg width="22" height="27" fill="none" xmlns="http://www.w3.org/2000/svg"><path d="M10.834 13.024c1.745 0 3.256-.617 4.49-1.834 1.235-1.218 1.86-2.707 1.86-4.428 0-1.72-.625-3.21-1.86-4.428C14.09 1.117 12.58.5 10.834.5s-3.256.617-4.49 1.834C5.108 3.552 4.482 5.042 4.482 6.762c0 1.72.626 3.21 1.861 4.428 1.235 1.217 2.746 1.834 4.49 1.834zm11.113 7.469a15.243 15.243 0 00-.214-1.643 12.785 12.785 0 00-.41-1.652 8.099 8.099 0 00-.688-1.54 5.825 5.825 0 00-1.039-1.335 4.59 4.59 0 00-1.492-.924 5.221 5.221 0 00-1.904-.34c-.27 0-.53.109-1.032.432-.31.199-.672.429-1.076.683-.345.217-.813.42-1.391.605a5.594 5.594 0 01-1.702.27 5.6 5.6 0 01-1.702-.27c-.577-.184-1.045-.387-1.39-.604-.4-.253-.762-.483-1.076-.684-.502-.323-.763-.432-1.032-.432-.686 0-1.326.114-1.904.34a4.586 4.586 0 00-1.492.924c-.392.37-.741.819-1.038 1.335a8.116 8.116 0 00-.689 1.54 12.825 12.825 0 00-.41 1.652 15.21 15.21 0 00-.213 1.643A21.972 21.972 0 000 22.03c0 1.357.438 2.455 1.3 3.266.853.8 1.98 1.205 3.352 1.205h12.697c1.37 0 2.498-.405 3.35-1.205.863-.81 1.301-1.909 1.301-3.267 0-.524-.018-1.04-.053-1.535z" fill="#fff"/></svg>