<svg width="26" height="23" fill="none" xmlns="http://www.w3.org/2000/svg"><path d="M23.937 2.25C22.591.8 20.745 0 18.737 0c-1.5 0-2.875.472-4.085 1.402A8.331 8.331 0 0013 3.117a8.327 8.327 0 00-1.652-1.715C10.138.472 8.764 0 7.263 0c-2.008 0-3.855.8-5.2 2.25C.732 3.686 0 5.646 0 7.77c0 2.186.82 4.187 2.579 6.298 1.574 1.888 3.836 3.805 6.455 6.024.894.758 1.908 1.617 2.96 2.533a1.53 1.53 0 002.01 0c1.053-.916 2.068-1.775 2.963-2.533 2.619-2.22 4.88-4.136 6.455-6.024C25.18 11.957 26 9.956 26 7.769c0-2.124-.733-4.084-2.063-5.518z" fill="#fff"/></svg>