<svg width="45" height="19" fill="none" xmlns="http://www.w3.org/2000/svg"><path d="M21.615 9.388v5.12H19.98V1.864h4.338a3.947 3.947 0 012.809 1.094A3.52 3.52 0 0128.3 5.627a3.484 3.484 0 01-1.173 2.683c-.759.719-1.695 1.078-2.81 1.077h-2.702v.001zm0-5.968v4.414h2.743a2.175 2.175 0 001.619-.653 2.155 2.155 0 00.657-1.546 2.142 2.142 0 00-.657-1.545 2.133 2.133 0 00-1.619-.67h-2.743zm10.454 2.154c1.209 0 2.163.321 2.863.963.7.641 1.049 1.521 1.048 2.639v5.332h-1.564v-1.2h-.071c-.678.988-1.578 1.482-2.703 1.482-.96 0-1.762-.282-2.408-.847a2.707 2.707 0 01-.97-2.119c0-.895.341-1.607 1.022-2.136.682-.528 1.591-.793 2.73-.795.97 0 1.77.177 2.399.53v-.371a1.839 1.839 0 00-.676-1.438 2.325 2.325 0 00-1.579-.592c-.913 0-1.636.383-2.169 1.148l-1.44-.9c.792-1.13 1.965-1.696 3.518-1.696zm-2.116 6.286a1.29 1.29 0 00.542 1.059c.362.283.811.432 1.271.424a2.616 2.616 0 001.84-.759c.542-.506.813-1.1.813-1.783-.51-.403-1.221-.605-2.134-.605-.664 0-1.218.159-1.662.477-.448.323-.67.716-.67 1.187zm15.008-6.004L39.5 18.321h-1.69l2.027-4.361-3.591-8.104h1.778l2.595 6.215h.036l2.524-6.215h1.781z" fill="#5F6368"/><path d="M15.006 8.284c0-.495-.042-.989-.126-1.477H7.982v2.798h3.95a3.35 3.35 0 01-1.46 2.207v1.816h2.358c1.38-1.264 2.176-3.133 2.176-5.344z" fill="#4285F4"/><path d="M7.982 15.383c1.973 0 3.635-.644 4.847-1.753l-2.357-1.816c-.657.441-1.502.694-2.49.694-1.908 0-3.528-1.277-4.107-2.999H1.446v1.872a7.284 7.284 0 002.696 2.921 7.353 7.353 0 003.84 1.081z" fill="#34A853"/><path d="M3.875 9.508a4.324 4.324 0 010-2.78V4.856H1.446a7.223 7.223 0 000 6.524l2.43-1.872z" fill="#FBBC04"/><path d="M7.982 3.73a3.986 3.986 0 012.805 1.09l2.088-2.074A7.055 7.055 0 007.982.854a7.353 7.353 0 00-3.84 1.082 7.283 7.283 0 00-2.696 2.92l2.43 1.872c.578-1.72 2.198-2.998 4.106-2.998z" fill="#EA4335"/></svg>