<svg width="31" height="19" fill="none" xmlns="http://www.w3.org/2000/svg"><path d="M30.536 9.16c0 5.027-4.087 9.162-9.161 9.162-5.027 0-9.16-4.134-9.16-9.161C12.214 4.134 16.3 0 21.327 0c5.12 0 9.208 4.134 9.208 9.16z" fill="#F9B50B"/><path d="M18.275 9.208c0-.658-.094-1.316-.188-1.926h-5.638c.047-.33.141-.611.235-.987h5.027a8.392 8.392 0 00-.376-.986H13.06c.141-.33.329-.611.517-.987h3.241a6.413 6.413 0 00-.704-.987h-1.786c.282-.328.564-.61.94-.94C13.671.894 11.51 0 9.114 0 4.134.14 0 4.134 0 9.16c0 5.027 4.087 9.162 9.16 9.162 2.397 0 4.51-.94 6.155-2.396.329-.282.61-.611.94-.987h-1.88a6.716 6.716 0 01-.657-.94h3.194a4.86 4.86 0 00.517-.986h-4.275a4.8 4.8 0 01-.376-.986h5.027a8.86 8.86 0 00.47-2.82z" fill="#C8191C"/><path d="M12.402 11.51l.141-.846c-.047 0-.14.047-.235.047-.329 0-.376-.188-.329-.282l.282-1.691h.517l.141-.94h-.47l.094-.564h-.986s-.564 3.195-.564 3.57c0 .564.329.846.799.846.281 0 .516-.094.61-.14zm.329-1.55c0 1.361.94 1.69 1.691 1.69.705 0 1.034-.14 1.034-.14l.188-.94s-.517.235-1.034.235c-1.08 0-.892-.799-.892-.799h1.973s.14-.61.14-.893c0-.61-.328-1.409-1.409-1.409-.94-.047-1.69 1.034-1.69 2.255zm1.691-1.41c.517 0 .423.61.423.657h-1.08c.047-.047.14-.657.657-.657zm6.155 2.96l.188-1.08s-.47.234-.846.234c-.658 0-.987-.516-.987-1.127 0-1.175.564-1.785 1.269-1.785.47 0 .892.282.892.282L21.234 7s-.564-.235-1.127-.235c-1.128 0-2.208.987-2.208 2.819 0 1.221.563 2.02 1.738 2.02.423.047.94-.094.94-.094zM7.094 7.657c-.658 0-1.175.188-1.175.188l-.14.846s.422-.188 1.08-.188c.329 0 .61.047.61.329 0 .188-.046.235-.046.235H7c-.846 0-1.738.328-1.738 1.456 0 .893.563 1.08.94 1.08.657 0 .986-.422 1.033-.422l-.047.375h.798l.376-2.677c0-1.175-.94-1.222-1.268-1.222zm.188 2.161c0 .141-.094.94-.658.94-.282 0-.376-.235-.376-.376 0-.235.141-.564.893-.564h.14zm2.02 1.786c.235 0 1.456.046 1.456-1.269 0-1.221-1.174-.986-1.174-1.456 0-.235.187-.33.516-.33.141 0 .658.048.658.048l.14-.893s-.328-.094-.939-.094c-.704 0-1.456.282-1.456 1.269 0 1.127 1.221 1.033 1.221 1.456 0 .282-.328.329-.563.329a3.65 3.65 0 01-.893-.141l-.14.893c.093.094.375.188 1.174.188zm19.355-4.698l-.188 1.316s-.376-.47-.94-.47c-.892 0-1.644 1.08-1.644 2.349 0 .798.376 1.597 1.222 1.597.563 0 .94-.376.94-.376l-.048.33h.987L29.69 7l-1.033-.094zm-.47 2.537c0 .517-.235 1.222-.798 1.222-.33 0-.517-.282-.517-.8 0-.798.329-1.268.798-1.268.33.047.517.282.517.846zM1.785 11.557l.564-3.476.094 3.476H3.1l1.268-3.476-.517 3.476h1.034l.798-4.65H4.087l-.986 2.865-.047-2.866h-1.41l-.798 4.651h.94z" fill="#fff"/><path d="M16.818 11.557c.282-1.598.33-2.913 1.034-2.678.094-.61.235-.893.329-1.128h-.188c-.423 0-.799.564-.799.564l.094-.517h-.94l-.61 3.759h1.08zm6.014-3.9c-.658 0-1.175.188-1.175.188l-.14.846s.422-.188 1.08-.188c.329 0 .61.047.61.329 0 .188-.047.235-.047.235h-.422c-.846 0-1.738.328-1.738 1.456 0 .893.563 1.08.94 1.08.657 0 .986-.422 1.033-.422l-.047.375h.892l.376-2.677c0-1.175-1.034-1.222-1.362-1.222zm.235 2.161c0 .141-.094.94-.658.94-.282 0-.376-.235-.376-.376 0-.235.141-.564.893-.564h.14zm1.879 1.739c.281-1.598.328-2.913 1.033-2.678.094-.61.235-.893.329-1.128h-.188c-.423 0-.799.564-.799.564l.094-.517h-.94l-.61 3.759h1.08z" fill="#fff"/></svg>