<svg width="63" height="16" fill="none" xmlns="http://www.w3.org/2000/svg"><path d="M24.384 6.76c-.16 1.202-1.121 1.202-2.002 1.202h-.48l.4-2.323c0-.16.16-.24.32-.24h.24c.641 0 1.202 0 1.522.32V6.76zm-.4-3.204H20.54c-.24 0-.4.16-.48.4l-1.363 8.811c0 .16.08.32.32.32h1.603c.24 0 .4-.16.48-.4l.4-2.403c0-.24.241-.4.481-.4h1.122c2.242 0 3.524-1.121 3.925-3.284.16-.961 0-1.682-.4-2.243-.642-.48-1.523-.8-2.644-.8zm7.93 6.408c-.16.96-.881 1.602-1.843 1.602-.48 0-.88-.16-1.12-.48a1.39 1.39 0 01-.241-1.122c.16-.961.88-1.602 1.842-1.602.48 0 .881.16 1.121.48.16.24.32.641.24 1.122zm2.242-3.204h-1.602c-.16 0-.24.08-.32.24l-.08.48-.08-.16c-.32-.48-1.121-.72-1.922-.72-1.843 0-3.365 1.361-3.685 3.284-.16.96.08 1.842.64 2.483.481.56 1.202.8 2.083.8 1.442 0 2.243-.96 2.243-.96l-.08.48c0 .16.08.32.32.32h1.442c.24 0 .4-.16.48-.4L34.478 7c0-.08-.08-.24-.32-.24zm8.731 0h-1.682a.44.44 0 00-.4.24l-2.243 3.364L37.6 7.16c-.08-.24-.24-.32-.481-.32h-1.602c-.16 0-.32.16-.24.4l1.842 5.287-1.682 2.403c-.16.16 0 .48.24.48h1.682c.16 0 .32-.08.4-.24l5.448-7.93c.08-.24-.08-.48-.32-.48z" fill="#263577"/><path d="M48.734 6.76c-.16 1.202-1.121 1.202-2.002 1.202h-.48l.4-2.323c0-.16.16-.24.32-.24h.24c.641 0 1.202 0 1.522.32.08.32.08.64 0 1.041zm-.4-3.204h-3.445c-.24 0-.4.16-.48.4l-1.362 8.811c0 .16.08.32.32.32h1.763c.16 0 .32-.08.32-.32l.4-2.483c0-.24.241-.4.481-.4h1.122c2.242 0 3.524-1.121 3.924-3.284.16-.961 0-1.682-.4-2.243-.56-.48-1.442-.8-2.643-.8zm8.01 6.408c-.16.96-.881 1.602-1.843 1.602-.48 0-.88-.16-1.121-.48a1.394 1.394 0 01-.24-1.122c.16-.961.88-1.602 1.842-1.602.48 0 .881.16 1.121.48.16.24.32.641.24 1.122zm2.242-3.204h-1.602c-.16 0-.24.08-.32.24l-.08.48-.08-.16c-.32-.48-1.121-.72-1.922-.72-1.843 0-3.365 1.361-3.685 3.284-.16.96.08 1.842.64 2.483.481.56 1.202.8 2.083.8 1.442 0 2.243-.96 2.243-.96l-.08.48c0 .16.08.32.32.32h1.442c.24 0 .4-.16.48-.4L58.908 7c0-.08-.16-.24-.32-.24zm1.922-2.964l-1.441 8.971c0 .16.08.32.32.32h1.442c.24 0 .4-.16.48-.4l1.362-8.81c0-.16-.08-.32-.32-.32h-1.602c-.08 0-.16.16-.24.24z" fill="#2199D6"/><path d="M4.44 14.77l.24-1.682H1.316L3.24.833s0-.08.08-.08h4.805c1.522 0 2.644.32 3.204.961.24.32.4.64.481.961.08.4.08.801 0 1.362v.32l.24.16c.24.08.4.24.561.401.24.24.4.56.4.961.08.4.08.881-.08 1.442-.16.64-.32 1.121-.56 1.602-.24.4-.561.72-.881 1.041-.32.24-.801.4-1.202.56-.48.081-.961.161-1.522.161h-.4c-.24 0-.48.08-.721.24-.16.16-.32.4-.4.641v.16l-.481 2.964v.16H4.44v-.08z" fill="#263577"/><path d="M12.37 4.037c0 .08 0 .16-.08.24-.641 3.204-2.724 4.245-5.447 4.245H5.48c-.32 0-.64.24-.64.56l-.721 4.486-.16 1.282c0 .24.16.4.32.4h2.483c.32 0 .56-.24.56-.48v-.16l.481-2.884v-.16c.08-.32.32-.48.56-.48h.401c2.403 0 4.245-.962 4.726-3.765.24-1.202.08-2.163-.48-2.804-.16-.16-.401-.32-.641-.48z" fill="#2199D6"/><path d="M11.729 3.796c-.08 0-.16-.08-.32-.08-.08 0-.24-.08-.32-.08-.401-.08-.802-.08-1.202-.08H6.202c-.08 0-.16 0-.24.08-.16.08-.32.24-.32.4L4.84 9.004v.16c.08-.32.32-.56.64-.56h1.362c2.723 0 4.806-1.122 5.447-4.246 0-.08 0-.16.08-.24l-.48-.24c-.08-.08-.161-.08-.161-.08z" fill="#252C5E"/><path d="M5.641 4.036c0-.16.16-.32.32-.4.08 0 .161-.08.241-.08h3.685c.4 0 .88 0 1.201.08.08 0 .24 0 .32.08.08 0 .16.08.32.08.081 0 .081 0 .161.08l.48.24c.16-1.201 0-2.002-.64-2.723C11.008.592 9.726.27 8.124.27H3.4c-.32 0-.641.24-.641.561L.836 13.167c0 .24.16.48.4.48H4.12l.72-4.645.801-4.966z" fill="#263577"/></svg>