<svg width="50" height="16" fill="none" xmlns="http://www.w3.org/2000/svg"><path d="M46.523.488h-3.1c-.937 0-1.657.288-2.09 1.225l-5.911 13.48h4.181s.72-1.801.865-2.234h5.118c.145.505.505 2.163.505 2.163h3.748L46.523.488zM41.621 9.93c.36-.865 1.586-4.109 1.586-4.109 0 .072.36-.865.505-1.37L44 5.75s.793 3.533.938 4.253H41.62v-.072zm-5.911.434c0 3.027-2.74 5.046-6.992 5.046-1.803 0-3.533-.36-4.47-.793l.577-3.316.504.216c1.298.577 2.163.793 3.749.793 1.153 0 2.379-.432 2.379-1.442 0-.648-.505-1.08-2.09-1.802-1.515-.72-3.533-1.874-3.533-3.965 0-2.883 2.811-4.83 6.776-4.83 1.514 0 2.812.289 3.605.65l-.577 3.171-.288-.288c-.721-.289-1.658-.577-3.028-.577-1.514.072-2.235.721-2.235 1.298 0 .648.865 1.153 2.235 1.802 2.307 1.081 3.388 2.307 3.388 4.037z" fill="#3362AB"/><path d="M.531.633L.603.344h6.2c.865 0 1.514.289 1.73 1.226l1.37 6.488C8.533 4.598 5.36 1.786.53.633z" fill="#F9B50B"/><path d="M18.625.488l-6.271 14.634H8.1L4.496 2.867c2.595 1.658 4.758 4.253 5.551 6.055l.432 1.514L14.372.416h4.253v.072zm1.658-.072h3.965l-2.523 14.706H17.76L20.283.416z" fill="#3362AB"/></svg>