<svg width="418" height="95" fill="none" xmlns="http://www.w3.org/2000/svg"><path d="M43.9 32.97c0 3.78-.48 7.23-1.44 10.35-.96 3.06-2.37 5.7-4.23 7.92-1.86 2.22-4.17 3.93-6.93 5.13-2.7 1.2-5.82 1.8-9.36 1.8-3.72 0-6.96-.72-9.72-2.16-2.7-1.5-4.95-3.45-6.75-5.85-1.74-2.4-3.03-5.07-3.87-8.01-.84-3-1.26-6.03-1.26-9.09 0-1.68.09-3.51.27-5.49.24-2.04.66-4.14 1.26-6.3.66-2.22 1.53-4.44 2.61-6.66C5.56 12.33 7 10.17 8.8 8.13c1.02-2.16 2.34-3.78 3.96-4.86 1.68-1.08 3.54-1.62 5.58-1.62.66 0 1.26.09 1.8.27.6.18 1.26.39 1.98.63s1.53.48 2.43.72c.96.18 2.1.33 3.42.45 2.7.18 5.04 1.2 7.02 3.06 1.98 1.86 3.63 4.2 4.95 7.02 1.32 2.76 2.31 5.82 2.97 9.18.66 3.36.99 6.69.99 9.99zm-6.93-1.62c0-1.02-.09-2.34-.27-3.96-.12-1.62-.39-3.33-.81-5.13-.36-1.8-.87-3.6-1.53-5.4-.66-1.86-1.5-3.51-2.52-4.95-1.02-1.5-2.22-2.7-3.6-3.6-1.38-.96-3-1.44-4.86-1.44-1.38 0-2.55.3-3.51.9-.9.6-1.65 1.38-2.25 2.34-.54.9-.93 1.92-1.17 3.06-.24 1.14-.36 2.25-.36 3.33 0 1.5.27 2.94.81 4.32.54 1.38 1.29 2.58 2.25 3.6s2.1 1.83 3.42 2.43c1.32.6 2.73.9 4.23.9 1.08 0 2.1-.27 3.06-.81s1.65-1.14 2.07-1.8c.12.66.27 1.23.45 1.71.24.48.36.87.36 1.17 0 .78-.39 1.41-1.17 1.89-.72.48-1.56.87-2.52 1.17-.96.24-1.92.42-2.88.54-.9.06-1.56.09-1.98.09-1.26 0-2.61-.21-4.05-.63-1.44-.48-2.85-1.14-4.23-1.98-1.32-.9-2.52-2.01-3.6-3.33-1.02-1.32-1.77-2.85-2.25-4.59-.66 1.92-1.08 3.87-1.26 5.85-.18 1.92-.27 3.72-.27 5.4 0 2.22.15 4.53.45 6.93.36 2.4 1.05 4.62 2.07 6.66 1.08 2.04 2.58 3.72 4.5 5.04 1.98 1.32 4.56 1.98 7.74 1.98 3 0 5.37-.78 7.11-2.34a15.59 15.59 0 004.14-5.67 23.6 23.6 0 001.98-7.11c.3-2.52.45-4.71.45-6.57zm33.672 21.51c-1.2-1.2-2.19-3.03-2.97-5.49-.18.36-.42 1.14-.72 2.34-.24 1.2-.63 2.46-1.17 3.78-.54 1.26-1.26 2.43-2.16 3.51-.84 1.02-1.92 1.53-3.24 1.53-3.84 0-6.48-1.11-7.92-3.33-1.44-2.22-2.28-5.49-2.52-9.81V23.7c.12-.42.18-.72.18-.9.06-.18.33-.27.81-.27.3 0 .81.06 1.53.18.78.12 1.56.3 2.34.54.78.18 1.47.45 2.07.81.66.36.99.78.99 1.26v19.53c.06 1.32.15 2.55.27 3.69.18 1.08.45 2.01.81 2.79.36.72.87 1.08 1.53 1.08 1.74 0 3.09-1.74 4.05-5.22.96-3.54 1.5-9.09 1.62-16.65 0-.48-.12-.96-.36-1.44s-.36-1.05-.36-1.71c.12-.48.6-.78 1.44-.9.9-.12 1.71-.18 2.43-.18 1.8 0 3.12.18 3.96.54.84.36 1.26 1.44 1.26 3.24-.12 1.08-.24 1.95-.36 2.61-.06.6-.12 1.17-.18 1.71 0 .48-.03 1.02-.09 1.62v2.43c0 1.38.06 2.82.18 4.32.12 1.5.33 2.88.63 4.14.3 1.26.66 2.31 1.08 3.15.48.78 1.08 1.17 1.8 1.17.66 0 1.17-.18 1.53-.54.36-.42.69-.87.99-1.35.3-.48.6-.9.9-1.26.3-.42.72-.63 1.26-.63.48 0 .84.18 1.08.54.24.3.36.6.36.9 0 1.14-.3 2.1-.9 2.88-.54.78-1.23 1.41-2.07 1.89-.78.48-1.59.84-2.43 1.08-.84.18-1.53.27-2.07.27-1.02 0-1.89-.12-2.61-.36s-1.44-.6-2.16-1.08l-.81-.72zm39.928-8.55c0 .42-.15 1.44-.45 3.06-.24 1.56-.72 3.24-1.44 5.04-.66 1.74-1.59 3.3-2.79 4.68-1.14 1.38-2.61 2.07-4.41 2.07-1.92 0-3.45-.69-4.59-2.07-1.14-1.32-2.01-2.91-2.61-4.77-.6-1.92-.99-3.9-1.17-5.94-.18-2.1-.27-3.84-.27-5.22 0-1.56.09-3.12.27-4.68.18-1.62.3-3.21.36-4.77 0-.48-.24-.78-.72-.9a5.58 5.58 0 00-1.35-.18c-.72 0-1.17.09-1.35.27-.18.18-.3.39-.36.63l-.36 2.88c-.24 1.92-.51 3.78-.81 5.58-.24 1.74-.54 3.3-.9 4.68-.3 1.32-.69 2.4-1.17 3.24-.42.78-.93 1.17-1.53 1.17h-.09c-.24 0-.48-.06-.72-.18-.18-.12-.27-.42-.27-.9 0-.24.06-.6.18-1.08.48-2.1.78-3.84.9-5.22s.21-2.61.27-3.69V36.3c.06-.42.09-.93.09-1.53v-4.41c0-.72-.06-1.5-.18-2.34l-.27-5.31c0-.36.15-.69.45-.99.3-.3.69-.57 1.17-.81.48-.24.99-.42 1.53-.54.54-.12 1.02-.18 1.44-.18 1.02 0 1.53.66 1.53 1.98v.45l-.09 1.98v.54c0 .42.09.69.27.81.18.06.54.15 1.08.27h.27c.48.06 1.26.12 2.34.18 1.08.06 2.16.18 3.24.36s2.01.48 2.79.9c.84.36 1.26.9 1.26 1.62 0 .24-.06.6-.18 1.08-.12.42-.27.87-.45 1.35-.18.42-.33.81-.45 1.17-.12.36-.18.6-.18.72-1.08 4.14-1.62 8.46-1.62 12.96 0 .36.03 1.02.09 1.98s.18 1.95.36 2.97c.18 1.02.45 1.92.81 2.7.36.78.81 1.17 1.35 1.17.9 0 1.71-.54 2.43-1.62.72-1.14 1.35-2.43 1.89-3.87.54-1.5.96-3 1.26-4.5.36-1.5.6-2.61.72-3.33.12-.66.3-1.05.54-1.17.3-.18.57-.27.81-.27.84 0 1.26.54 1.26 1.62 0 .12-.03.45-.09.99 0 .48-.03.84-.09 1.08zm51.571-41.13c-.06.06-.15.21-.27.45-.06.24-.09.66-.09 1.26 0 .84.12 1.65.36 2.43v29.79c0 3.06-.3 6-.9 8.82-.6 2.82-1.65 5.34-3.15 7.56-1.44 2.16-3.45 3.87-6.03 5.13-2.52 1.32-5.76 1.98-9.72 1.98h-1.17c-3.42 0-6.21-.48-8.37-1.44-2.1-.9-3.75-2.07-4.95-3.51-1.2-1.44-2.01-3-2.43-4.68-.42-1.74-.63-3.39-.63-4.95 0-1.32.18-2.58.54-3.78.3-1.26.78-2.34 1.44-3.24.6-.96 1.35-1.71 2.25-2.25.9-.6 1.92-.9 3.06-.9 1.08 0 1.77.3 2.07.9.3.54.45 1.11.45 1.71 0 1.32-.27 2.43-.81 3.33-.54.84-1.14 1.59-1.8 2.25-.6.66-1.17 1.32-1.71 1.98-.54.66-.81 1.47-.81 2.43 0 2.88.96 4.95 2.88 6.21 1.92 1.26 4.32 1.89 7.2 1.89 2.52 0 4.71-.51 6.57-1.53 1.86-1.02 3.39-2.31 4.59-3.87 1.26-1.56 2.19-3.24 2.79-5.04.6-1.86.9-3.6.9-5.22l-1.35.09c-2.16 0-4.05-.48-5.67-1.44a14.848 14.848 0 01-3.96-3.78c-1.02-1.5-1.8-3.12-2.34-4.86-.48-1.74-.72-3.36-.72-4.86v-3.15c0-1.14.15-2.46.45-3.96.3-1.56.72-3.15 1.26-4.77.54-1.68 1.2-3.3 1.98-4.86.78-1.62 1.62-3.06 2.52-4.32.9-1.26 1.86-2.28 2.88-3.06 1.02-.78 2.07-1.17 3.15-1.17.42 0 .9.09 1.44.27l6.3.45c.42.06.81.21 1.17.45.42.24.63.66.63 1.26zm-7.74 10.8c.12-.48.24-.93.36-1.35.12-.42.18-.9.18-1.44 0-.78-.21-1.47-.63-2.07-.36-.66-1.05-.99-2.07-.99-1.32 0-2.4.54-3.24 1.62-.84 1.08-1.5 2.37-1.98 3.87-.42 1.5-.72 3.06-.9 4.68-.18 1.62-.27 2.94-.27 3.96 0 .78.06 1.92.18 3.42.12 1.44.39 2.88.81 4.32.48 1.44 1.11 2.7 1.89 3.78.84 1.08 1.95 1.62 3.33 1.62.12 0 .45-.03.99-.09.6-.06 1.05-.15 1.35-.27V13.98zm29.739 23.4c-.9 1.26-1.65 2.67-2.25 4.23-.54 1.5-1.02 3.09-1.44 4.77-.42 1.62-.78 3.27-1.08 4.95a94.47 94.47 0 01-.81 4.68c-.12.36-.6.6-1.44.72-.78.12-1.35.18-1.71.18-1.08 0-1.98-.06-2.7-.18-.66-.12-1.17-.39-1.53-.81-.36-.48-.63-1.17-.81-2.07-.18-.96-.33-2.22-.45-3.78l1.17-26.73c0-.78.42-1.17 1.26-1.17.3 0 .72.06 1.26.18.54.06 1.11.18 1.71.36.6.18 1.11.42 1.53.72.42.24.63.54.63.9V42.6c.06-.06.15-.3.27-.72.42-1.08.93-2.4 1.53-3.96.6-1.62 1.26-3.15 1.98-4.59s1.47-2.67 2.25-3.69c.84-1.02 1.68-1.53 2.52-1.53 1.08 0 1.89.27 2.43.81.6.48 1.05 1.11 1.35 1.89.3.78.48 1.62.54 2.52.06.9.09 1.77.09 2.61 0 .6-.06 1.59-.18 2.97-.12 1.38-.18 3.45-.18 6.21 0 1.56.15 2.97.45 4.23.3 1.26.9 1.89 1.8 1.89.66 0 1.26-.3 1.8-.9.54-.6 1.02-1.35 1.44-2.25.48-.9.87-1.86 1.17-2.88.3-1.02.48-1.98.54-2.88.06-1.14.51-1.71 1.35-1.71.54 0 .9.18 1.08.54.18.36.27.78.27 1.26v.18c-.06 1.2-.3 2.55-.72 4.05-.36 1.5-.93 2.91-1.71 4.23a10.25 10.25 0 01-2.88 3.33c-1.2.9-2.67 1.35-4.41 1.35-2.7 0-4.44-.96-5.22-2.88-.72-1.98-1.08-4.89-1.08-8.73l.18-6.57zm36.422 14.04c0 1.44-.48 2.55-1.44 3.33-.96.78-2.07 1.35-3.33 1.71-1.2.36-2.43.57-3.69.63-1.2.12-2.07.18-2.61.18-.84 0-1.89-.09-3.15-.27-1.2-.18-2.4-.45-3.6-.81-1.14-.42-2.13-.99-2.97-1.71-.78-.72-1.17-1.62-1.17-2.7 0-.66.24-1.11.72-1.35.54-.3 1.05-.45 1.53-.45.66 0 1.29.24 1.89.72.66.48 1.32.99 1.98 1.53.72.54 1.5 1.05 2.34 1.53.84.48 1.8.72 2.88.72.48 0 1.11-.15 1.89-.45.84-.36 1.26-.96 1.26-1.8 0-.84-.36-1.65-1.08-2.43-.66-.78-1.53-1.59-2.61-2.43-1.02-.84-2.13-1.71-3.33-2.61-1.2-.9-2.34-1.86-3.42-2.88a18.383 18.383 0 01-2.61-3.51c-.66-1.26-.99-2.64-.99-4.14 0-2.1.66-3.87 1.98-5.31 1.38-1.44 2.97-2.58 4.77-3.42 1.86-.84 3.75-1.44 5.67-1.8 1.92-.36 3.42-.54 4.5-.54 1.02 0 2.04.21 3.06.63 1.02.42 1.53 1.23 1.53 2.43 0 .36-.09.9-.27 1.62-.12.66-.36 1.32-.72 1.98-.3.66-.72 1.26-1.26 1.8-.54.48-1.23.72-2.07.72-.24 0-.48-.09-.72-.27a9.82 9.82 0 00-.81-.72c-.3-.3-.63-.54-.99-.72-.3-.24-.66-.36-1.08-.36-2.1 0-3.57.63-4.41 1.89-.84 1.2-1.26 2.49-1.26 3.87 0 1.2.69 2.46 2.07 3.78a80.8 80.8 0 004.68 3.96c1.74 1.32 3.3 2.64 4.68 3.96 1.44 1.26 2.16 2.49 2.16 3.69zm3.288-10.71c.06-3.06.15-6.18.27-9.36.12-3.18.24-6.12.36-8.82 0-.48-.48-.81-1.44-.99-.96-.18-2.04-.36-3.24-.54-1.2-.18-2.28-.45-3.24-.81-.96-.42-1.44-1.08-1.44-1.98 0-.78.78-1.23 2.34-1.35 1.56-.12 3.87-.18 6.93-.18.24 0 .39-.36.45-1.08.12-.72.18-1.62.18-2.7.06-1.14.09-2.34.09-3.6.06-1.26.12-2.43.18-3.51.06-1.14.15-2.07.27-2.79.18-.72.39-1.08.63-1.08.3 0 .84.06 1.62.18.78.12 1.59.3 2.43.54.84.18 1.56.42 2.16.72.66.3.99.63.99.99l-.99 11.7c0 .36.3.63.9.81.66.12 1.47.21 2.43.27h3.15c1.14 0 2.19.09 3.15.27 1.02.18 1.83.48 2.43.9.66.36.99.93.99 1.71 0 .12-.06.33-.18.63-.12.24-.27.36-.45.36-.12 0-.3-.09-.54-.27-.18-.18-.72-.27-1.62-.27-.24 0-.9.03-1.98.09s-2.22.15-3.42.27c-1.2.12-2.31.27-3.33.45-.96.12-1.5.3-1.62.54-.06.12-.15.84-.27 2.16-.06 1.26-.15 2.94-.27 5.04-.06 2.1-.12 4.53-.18 7.29-.06 2.7-.09 5.55-.09 8.55 0 1.14.06 2.25.18 3.33s.3 2.07.54 2.97c.24.84.54 1.53.9 2.07.42.54.9.81 1.44.81.78 0 1.5-.33 2.16-.99.66-.66 1.26-1.56 1.8-2.7.54-1.14 1.02-2.43 1.44-3.87.42-1.44.78-2.91 1.08-4.41.18-.9.39-1.53.63-1.89.24-.42.6-.63 1.08-.63.42 0 .78.15 1.08.45.36.24.54.84.54 1.8 0 .6-.03.99-.09 1.17-.18 1.08-.54 2.58-1.08 4.5-.48 1.86-1.17 3.72-2.07 5.58-.84 1.8-1.89 3.39-3.15 4.77-1.26 1.38-2.73 2.07-4.41 2.07-1.62 0-3.03-.48-4.23-1.44-1.2-.9-2.22-2.16-3.06-3.78-.78-1.68-1.38-3.63-1.8-5.85-.42-2.28-.63-4.71-.63-7.29v-.81zm54.758 6.48c-.12.84-.42 1.83-.9 2.97a16.87 16.87 0 01-1.89 3.33c-.72 1.02-1.59 1.89-2.61 2.61-.96.72-2.04 1.08-3.24 1.08-1.8 0-3.39-.69-4.77-2.07-1.32-1.38-2.13-3.33-2.43-5.85-.36.96-.78 2.07-1.26 3.33-.48 1.26-1.08 2.43-1.8 3.51-.72 1.08-1.56 1.98-2.52 2.7-.9.78-1.98 1.17-3.24 1.17-.36 0-.63-.03-.81-.09-.18-.06-.39-.15-.63-.27-.18-.06-.42-.12-.72-.18-.24-.06-.6-.09-1.08-.09-1.44 0-2.67-.48-3.69-1.44-.96-.9-1.74-2.07-2.34-3.51-.6-1.44-1.05-3-1.35-4.68-.24-1.74-.36-3.36-.36-4.86 0-3.6.18-7.02.54-10.26.42-3.24 1.08-6.09 1.98-8.55.9-2.52 2.07-4.5 3.51-5.94 1.44-1.5 3.18-2.25 5.22-2.25 1.2 0 2.1.12 2.7.36.66.18 1.26.42 1.8.72.54.24 1.11.51 1.71.81.66.3 1.56.54 2.7.72 1.26.72 2.13 1.59 2.61 2.61.54.96.87 2.01.99 3.15.18 1.14.24 2.34.18 3.6-.06 1.2 0 2.4.18 3.6 0 .06.12.15.36.27.3.12.63.27.99.45.36.12.66.33.9.63.3.24.45.57.45.99v.36c-.6 1.56-.96 2.94-1.08 4.14-.12 1.2-.18 2.64-.18 4.32 0 .84.03 1.77.09 2.79.12.96.27 1.89.45 2.79.24.84.57 1.56.99 2.16.42.54.96.81 1.62.81.72 0 1.35-.36 1.89-1.08.6-.72 1.08-1.53 1.44-2.43.42-.96.75-1.92.99-2.88.3-.96.48-1.68.54-2.16.12-.72.42-1.08.9-1.08.3 0 .57.18.81.54.3.3.45.87.45 1.71v.72c0 .18-.03.42-.09.72zm-16.65-14.58c0-.66-.06-1.44-.18-2.34-.12-.9-.33-1.74-.63-2.52s-.75-1.44-1.35-1.98c-.6-.54-1.41-.81-2.43-.81-1.68 0-3.06.78-4.14 2.34-1.02 1.5-1.83 3.3-2.43 5.4-.6 2.04-.99 4.17-1.17 6.39-.18 2.16-.27 3.87-.27 5.13 0 .96.03 2.13.09 3.51.12 1.32.3 2.58.54 3.78.24 1.2.57 2.22.99 3.06.48.84 1.08 1.26 1.8 1.26 1.74 0 3.06-.66 3.96-1.98.96-1.38 1.68-3.06 2.16-5.04.48-2.04.81-4.2.99-6.48.24-2.34.45-4.47.63-6.39.12-1.02.39-1.65.81-1.89.42-.3.63-.51.63-.63v-.81zm45.205 26.73c0 .6-.27 1.02-.81 1.26s-1.05.36-1.53.36l-1.8-.18c-.3 0-.45.18-.45.54l-.09 1.08c.06 1.62.09 3.66.09 6.12v7.11c0 2.4-.09 4.74-.27 7.02-.12 2.34-.45 4.41-.99 6.21-.54 1.86-1.32 3.33-2.34 4.41-.96 1.14-2.31 1.71-4.05 1.71-1.5 0-3.09-.09-4.77-.27-1.62-.12-3.12-.48-4.5-1.08-1.32-.6-2.43-1.5-3.33-2.7-.84-1.14-1.26-2.7-1.26-4.68 0-1.98.21-4.02.63-6.12.48-2.04 1.14-4.05 1.98-6.03.84-1.92 1.83-3.78 2.97-5.58 1.2-1.74 2.49-3.3 3.87-4.68.72-.72 1.5-1.47 2.34-2.25.9-.72 1.68-1.32 2.34-1.8v-.09a80 80 0 00.36-7.65c-.3.54-.66 1.29-1.08 2.25-.42.9-.93 1.77-1.53 2.61-.54.84-1.17 1.56-1.89 2.16-.72.66-1.53.99-2.43.99-.48 0-.9-.09-1.26-.27-.36-.18-.87-.27-1.53-.27-1.68-.12-3.09-.57-4.23-1.35-1.08-.78-1.95-1.86-2.61-3.24-.6-1.38-1.02-3-1.26-4.86-.24-1.92-.36-4.05-.36-6.39 0-2.82.15-5.73.45-8.73.36-3 .96-5.73 1.8-8.19.84-2.52 1.95-4.56 3.33-6.12 1.44-1.62 3.24-2.43 5.4-2.43.24 0 .54.09.9.27.42.18.84.39 1.26.63.48.18.93.39 1.35.63.48.18.84.3 1.08.36 1.2.24 2.31.54 3.33.9s1.89.84 2.61 1.44c.72.54 1.29 1.29 1.71 2.25.42.9.63 2.04.63 3.42 0 .96-.09 1.83-.27 2.61-.12.78-.18 1.77-.18 2.97 0 .48.18.81.54.99.36.18.75.33 1.17.45.48.12.9.27 1.26.45.36.12.54.42.54.9 0 .12-.15.42-.45.9-.24.42-.39.69-.45.81-.18.48-.33 1.26-.45 2.34-.12 1.02-.21 2.16-.27 3.42-.06 1.2-.12 2.46-.18 3.78v6.57c0 1.26.03 2.31.09 3.15h.36c.12 0 .24-.03.36-.09h.27c.54 0 1.26.15 2.16.45.96.36 1.44.87 1.44 1.53zm-11.52-27.81c0-.66-.06-1.41-.18-2.25-.12-.84-.33-1.62-.63-2.34-.3-.78-.75-1.41-1.35-1.89-.54-.54-1.23-.81-2.07-.81-1.14 0-2.22.45-3.24 1.35-.96.9-1.83 2.19-2.61 3.87-.72 1.62-1.32 3.63-1.8 6.03-.42 2.34-.63 5.01-.63 8.01 0 1.26.03 2.58.09 3.96.12 1.32.27 2.52.45 3.6.24 1.08.57 1.98.99 2.7.48.72 1.08 1.08 1.8 1.08 1.26 0 2.37-.54 3.33-1.62s1.74-2.4 2.34-3.96a24.51 24.51 0 001.44-4.95c.36-1.74.57-3.24.63-4.5.06-1.74.15-2.91.27-3.51.12-.66.24-1.08.36-1.26.36-.48.57-1.05.63-1.71.12-.66.18-1.26.18-1.8zm-.36 31.32c-1.38.96-2.7 2.31-3.96 4.05-1.2 1.74-2.25 3.63-3.15 5.67-.9 2.04-1.62 4.11-2.16 6.21-.48 2.1-.72 3.99-.72 5.67 0 .6.06 1.26.18 1.98s.3 1.38.54 1.98c.3.66.69 1.2 1.17 1.62.54.42 1.17.63 1.89.63 1.26 0 2.28-.54 3.06-1.62.84-1.02 1.47-2.25 1.89-3.69.48-1.44.78-2.91.9-4.41.18-1.5.27-2.7.27-3.6v-2.88c.06-1.02.09-2.46.09-4.32v-7.29zm40.101-18.54c0 .42-.15 1.44-.45 3.06-.24 1.56-.72 3.24-1.44 5.04-.66 1.74-1.59 3.3-2.79 4.68-1.14 1.38-2.61 2.07-4.41 2.07-1.92 0-3.45-.69-4.59-2.07-1.14-1.32-2.01-2.91-2.61-4.77-.6-1.92-.99-3.9-1.17-5.94-.18-2.1-.27-3.84-.27-5.22 0-1.56.09-3.12.27-4.68.18-1.62.3-3.21.36-4.77 0-.48-.24-.78-.72-.9a5.58 5.58 0 00-1.35-.18c-.72 0-1.17.09-1.35.27-.18.18-.3.39-.36.63l-.36 2.88c-.24 1.92-.51 3.78-.81 5.58-.24 1.74-.54 3.3-.9 4.68-.3 1.32-.69 2.4-1.17 3.24-.42.78-.93 1.17-1.53 1.17h-.09c-.24 0-.48-.06-.72-.18-.18-.12-.27-.42-.27-.9 0-.24.06-.6.18-1.08.48-2.1.78-3.84.9-5.22s.21-2.61.27-3.69V36.3c.06-.42.09-.93.09-1.53v-4.41c0-.72-.06-1.5-.18-2.34l-.27-5.31c0-.36.15-.69.45-.99.3-.3.69-.57 1.17-.81.48-.24.99-.42 1.53-.54.54-.12 1.02-.18 1.44-.18 1.02 0 1.53.66 1.53 1.98v.45l-.09 1.98v.54c0 .42.09.69.27.81.18.06.54.15 1.08.27h.27c.48.06 1.26.12 2.34.18 1.08.06 2.16.18 3.24.36s2.01.48 2.79.9c.84.36 1.26.9 1.26 1.62 0 .24-.06.6-.18 1.08-.12.42-.27.87-.45 1.35-.18.42-.33.81-.45 1.17-.12.36-.18.6-.18.72-1.08 4.14-1.62 8.46-1.62 12.96 0 .36.03 1.02.09 1.98s.18 1.95.36 2.97c.18 1.02.45 1.92.81 2.7.36.78.81 1.17 1.35 1.17.9 0 1.71-.54 2.43-1.62.72-1.14 1.35-2.43 1.89-3.87.54-1.5.96-3 1.26-4.5.36-1.5.6-2.61.72-3.33.12-.66.3-1.05.54-1.17.3-.18.57-.27.81-.27.84 0 1.26.54 1.26 1.62 0 .12-.03.45-.09.99 0 .48-.03.84-.09 1.08zm34.374 2.88c-.12.84-.42 1.83-.9 2.97a16.87 16.87 0 01-1.89 3.33c-.72 1.02-1.59 1.89-2.61 2.61-.96.72-2.04 1.08-3.24 1.08-1.8 0-3.39-.69-4.77-2.07-1.32-1.38-2.13-3.33-2.43-5.85-.36.96-.78 2.07-1.26 3.33-.48 1.26-1.08 2.43-1.8 3.51-.72 1.08-1.56 1.98-2.52 2.7-.9.78-1.98 1.17-3.24 1.17-.36 0-.63-.03-.81-.09-.18-.06-.39-.15-.63-.27-.18-.06-.42-.12-.72-.18-.24-.06-.6-.09-1.08-.09-1.44 0-2.67-.48-3.69-1.44-.96-.9-1.74-2.07-2.34-3.51-.6-1.44-1.05-3-1.35-4.68-.24-1.74-.36-3.36-.36-4.86 0-3.6.18-7.02.54-10.26.42-3.24 1.08-6.09 1.98-8.55.9-2.52 2.07-4.5 3.51-5.94 1.44-1.5 3.18-2.25 5.22-2.25 1.2 0 2.1.12 2.7.36.66.18 1.26.42 1.8.72.54.24 1.11.51 1.71.81.66.3 1.56.54 2.7.72 1.26.72 2.13 1.59 2.61 2.61.54.96.87 2.01.99 3.15.18 1.14.24 2.34.18 3.6-.06 1.2 0 2.4.18 3.6 0 .06.12.15.36.27.3.12.63.27.99.45.36.12.66.33.9.63.3.24.45.57.45.99v.36c-.6 1.56-.96 2.94-1.08 4.14-.12 1.2-.18 2.64-.18 4.32 0 .84.03 1.77.09 2.79.12.96.27 1.89.45 2.79.24.84.57 1.56.99 2.16.42.54.96.81 1.62.81.72 0 1.35-.36 1.89-1.08.6-.72 1.08-1.53 1.44-2.43.42-.96.75-1.92.99-2.88.3-.96.48-1.68.54-2.16.12-.72.42-1.08.9-1.08.3 0 .57.18.81.54.3.3.45.87.45 1.71v.72c0 .18-.03.42-.09.72zm-16.65-14.58c0-.66-.06-1.44-.18-2.34-.12-.9-.33-1.74-.63-2.52s-.75-1.44-1.35-1.98c-.6-.54-1.41-.81-2.43-.81-1.68 0-3.06.78-4.14 2.34-1.02 1.5-1.83 3.3-2.43 5.4-.6 2.04-.99 4.17-1.17 6.39-.18 2.16-.27 3.87-.27 5.13 0 .96.03 2.13.09 3.51.12 1.32.3 2.58.54 3.78.24 1.2.57 2.22.99 3.06.48.84 1.08 1.26 1.8 1.26 1.74 0 3.06-.66 3.96-1.98.96-1.38 1.68-3.06 2.16-5.04.48-2.04.81-4.2.99-6.48.24-2.34.45-4.47.63-6.39.12-1.02.39-1.65.81-1.89.42-.3.63-.51.63-.63v-.81zm45.565 2.25c-.84 1.62-1.62 3.33-2.34 5.13-.72 1.8-1.26 3.21-1.62 4.23-.06.3-.24.93-.54 1.89-.24.96-.54 2.04-.9 3.24-.3 1.14-.57 2.28-.81 3.42-.24 1.14-.36 2.07-.36 2.79 0 .3-.27.57-.81.81-.54.24-1.23.36-2.07.36-1.32 0-2.37-.18-3.15-.54-.78-.36-1.38-.93-1.8-1.71-.36-.84-.6-1.92-.72-3.24-.06-1.32-.09-2.91-.09-4.77v-6.75c0-.48-.03-.96-.09-1.44 0-.48-.09-.78-.27-.9-.3.12-.69.9-1.17 2.34-.42 1.44-.84 3.21-1.26 5.31-.36 2.04-.69 4.2-.99 6.48-.3 2.28-.45 4.32-.45 6.12 0 .66-.36 1.05-1.08 1.17-.66.12-1.41.18-2.25.18-.24 0-.66-.06-1.26-.18-.54-.06-1.11-.15-1.71-.27-.54-.12-1.05-.3-1.53-.54-.48-.18-.78-.42-.9-.72-.3-.78-.54-2.07-.72-3.87-.12-1.8-.18-4.59-.18-8.37 0-2.22.03-4.8.09-7.74.12-2.94.24-6.39.36-10.35 0-.54-.03-1.23-.09-2.07-.06-.9-.09-1.41-.09-1.53 0-.48.18-.75.54-.81.42-.12.72-.18.9-.18.42 0 .9.06 1.44.18.6.06 1.17.15 1.71.27.6.12 1.14.27 1.62.45.48.12.81.24.99.36V45.3c.3-1.2.63-2.58.99-4.14.42-1.62.87-3.21 1.35-4.77.54-1.56 1.11-3 1.71-4.32.6-1.32 1.23-2.28 1.89-2.88.24-.18.69-.3 1.35-.36.66-.12 1.2-.18 1.62-.18.3 0 .66.06 1.08.18.48.06.93.18 1.35.36.42.18.78.42 1.08.72.36.24.57.54.63.9V46.2c0 .36.06.54.18.54s.45-.81.99-2.43c.6-1.62 1.29-3.54 2.07-5.76.78-2.22 1.62-4.5 2.52-6.84.9-2.34 1.71-4.2 2.43-5.58.12-.24.51-.36 1.17-.36.72-.06 1.35-.09 1.89-.09.42 0 .99.15 1.71.45.72.24 1.41.6 2.07 1.08.72.48 1.32 1.02 1.8 1.62.54.6.81 1.23.81 1.89 0 .12-.18.48-.54 1.08-.36.54-.6 1.11-.72 1.71-.42 1.68-.72 3.33-.9 4.95-.12 1.62-.18 3.69-.18 6.21 0 1.08.03 2.16.09 3.24.12 1.08.27 2.07.45 2.97.24.84.54 1.53.9 2.07.36.54.84.81 1.44.81.84 0 1.59-.27 2.25-.81.66-.6 1.23-1.38 1.71-2.34s.9-2.07 1.26-3.33c.36-1.32.66-2.67.9-4.05.3-1.44.84-2.16 1.62-2.16.48 0 .78.12.9.36.18.24.27.78.27 1.62 0 .48-.03.81-.09.99-.06.78-.33 2.01-.81 3.69-.42 1.62-1.05 3.27-1.89 4.95-.78 1.62-1.77 3.06-2.97 4.32-1.2 1.2-2.58 1.8-4.14 1.8-1.86 0-3.39-.45-4.59-1.35-1.2-.84-2.13-1.98-2.79-3.42-.66-1.5-1.14-3.21-1.44-5.13-.24-1.92-.36-3.93-.36-6.03v-.63l.54-7.38z" fill="#FCA4CE"/></svg>