<svg width="31" height="26" viewBox="0 0 31 26" fill="none" xmlns="http://www.w3.org/2000/svg">
<path d="M30.3541 9.09999H25.0581L19.0344 0.281861C18.8324 -0.0139294 18.4303 -0.0889433 18.1364 0.114344L17.0718 0.850772C16.7778 1.05412 16.7033 1.45881 16.9053 1.75466L21.9229 9.09999H9.07705L14.0946 1.75466C14.2967 1.45881 14.2222 1.05412 13.9282 0.850772L12.8635 0.114344C12.5696 -0.0889433 12.1675 -0.0139294 11.9655 0.281861L5.94188 9.09999H0.645852C0.289171 9.09999 0 9.39097 0 9.75001V11.05C0 11.409 0.289171 11.7 0.645852 11.7H1.46523L5.4133 24.1884C5.75642 25.2719 6.74533 26 7.87489 26H23.1251C24.2547 26 25.2436 25.2719 25.5867 24.1877L29.5347 11.7H30.3542C30.7108 11.7 31 11.409 31 11.05V9.75001C30.9999 9.39097 30.7108 9.09999 30.3541 9.09999Z" fill="white"/>
</svg>
