<svg width="418" height="95" viewBox="0 0 418 95" fill="none" xmlns="http://www.w3.org/2000/svg">
<path d="M43.9 32.97C43.9 36.75 43.42 40.2 42.46 43.32C41.5 46.38 40.09 49.02 38.23 51.24C36.37 53.46 34.06 55.17 31.3 56.37C28.6 57.57 25.48 58.17 21.94 58.17C18.22 58.17 14.98 57.45 12.22 56.01C9.52 54.51 7.27 52.56 5.47 50.16C3.73 47.76 2.44 45.09 1.6 42.15C0.76 39.15 0.34 36.12 0.34 33.06C0.34 31.38 0.43 29.55 0.61 27.57C0.85 25.53 1.27 23.43 1.87 21.27C2.53 19.05 3.4 16.83 4.48 14.61C5.56 12.33 7 10.17 8.8 8.13C9.82 5.97 11.14 4.35 12.76 3.27C14.44 2.19 16.3 1.65 18.34 1.65C19 1.65 19.6 1.74 20.14 1.92C20.74 2.1 21.4 2.31 22.12 2.55C22.84 2.79 23.65 3.03 24.55 3.27C25.51 3.45 26.65 3.6 27.97 3.72C30.67 3.9 33.01 4.92 34.99 6.78C36.97 8.64 38.62 10.98 39.94 13.8C41.26 16.56 42.25 19.62 42.91 22.98C43.57 26.34 43.9 29.67 43.9 32.97ZM36.97 31.35C36.97 30.33 36.88 29.01 36.7 27.39C36.58 25.77 36.31 24.06 35.89 22.26C35.53 20.46 35.02 18.66 34.36 16.86C33.7 15 32.86 13.35 31.84 11.91C30.82 10.41 29.62 9.21 28.24 8.31C26.86 7.35 25.24 6.87 23.38 6.87C22 6.87 20.83 7.17 19.87 7.77C18.97 8.37 18.22 9.15 17.62 10.11C17.08 11.01 16.69 12.03 16.45 13.17C16.21 14.31 16.09 15.42 16.09 16.5C16.09 18 16.36 19.44 16.9 20.82C17.44 22.2 18.19 23.4 19.15 24.42C20.11 25.44 21.25 26.25 22.57 26.85C23.89 27.45 25.3 27.75 26.8 27.75C27.88 27.75 28.9 27.48 29.86 26.94C30.82 26.4 31.51 25.8 31.93 25.14C32.05 25.8 32.2 26.37 32.38 26.85C32.62 27.33 32.74 27.72 32.74 28.02C32.74 28.8 32.35 29.43 31.57 29.91C30.85 30.39 30.01 30.78 29.05 31.08C28.09 31.32 27.13 31.5 26.17 31.62C25.27 31.68 24.61 31.71 24.19 31.71C22.93 31.71 21.58 31.5 20.14 31.08C18.7 30.6 17.29 29.94 15.91 29.1C14.59 28.2 13.39 27.09 12.31 25.77C11.29 24.45 10.54 22.92 10.06 21.18C9.4 23.1 8.98 25.05 8.8 27.03C8.62 28.95 8.53 30.75 8.53 32.43C8.53 34.65 8.68 36.96 8.98 39.36C9.34 41.76 10.03 43.98 11.05 46.02C12.13 48.06 13.63 49.74 15.55 51.06C17.53 52.38 20.11 53.04 23.29 53.04C26.29 53.04 28.66 52.26 30.4 50.7C32.2 49.14 33.58 47.25 34.54 45.03C35.56 42.81 36.22 40.44 36.52 37.92C36.82 35.4 36.97 33.21 36.97 31.35ZM70.642 52.86C69.442 51.66 68.452 49.83 67.672 47.37C67.492 47.73 67.252 48.51 66.952 49.71C66.712 50.91 66.322 52.17 65.782 53.49C65.242 54.75 64.522 55.92 63.622 57C62.782 58.02 61.702 58.53 60.382 58.53C56.542 58.53 53.902 57.42 52.462 55.2C51.022 52.98 50.182 49.71 49.942 45.39V23.7C50.062 23.28 50.122 22.98 50.122 22.8C50.182 22.62 50.452 22.53 50.932 22.53C51.232 22.53 51.742 22.59 52.462 22.71C53.242 22.83 54.022 23.01 54.802 23.25C55.582 23.43 56.272 23.7 56.872 24.06C57.532 24.42 57.862 24.84 57.862 25.32V41.25C57.862 42.33 57.862 43.53 57.862 44.85C57.922 46.17 58.012 47.4 58.132 48.54C58.312 49.62 58.582 50.55 58.942 51.33C59.302 52.05 59.812 52.41 60.472 52.41C62.212 52.41 63.562 50.67 64.522 47.19C65.482 43.65 66.022 38.1 66.142 30.54C66.142 30.06 66.022 29.58 65.782 29.1C65.542 28.62 65.422 28.05 65.422 27.39C65.542 26.91 66.022 26.61 66.862 26.49C67.762 26.37 68.572 26.31 69.292 26.31C71.092 26.31 72.412 26.49 73.252 26.85C74.092 27.21 74.512 28.29 74.512 30.09C74.392 31.17 74.272 32.04 74.152 32.7C74.092 33.3 74.032 33.87 73.972 34.41C73.972 34.89 73.942 35.43 73.882 36.03C73.882 36.57 73.882 37.38 73.882 38.46C73.882 39.84 73.942 41.28 74.062 42.78C74.182 44.28 74.392 45.66 74.692 46.92C74.992 48.18 75.352 49.23 75.772 50.07C76.252 50.85 76.852 51.24 77.572 51.24C78.232 51.24 78.742 51.06 79.102 50.7C79.462 50.28 79.792 49.83 80.092 49.35C80.392 48.87 80.692 48.45 80.992 48.09C81.292 47.67 81.712 47.46 82.252 47.46C82.732 47.46 83.092 47.64 83.332 48C83.572 48.3 83.692 48.6 83.692 48.9C83.692 50.04 83.392 51 82.792 51.78C82.252 52.56 81.562 53.19 80.722 53.67C79.942 54.15 79.132 54.51 78.292 54.75C77.452 54.93 76.762 55.02 76.222 55.02C75.202 55.02 74.332 54.9 73.612 54.66C72.892 54.42 72.172 54.06 71.452 53.58L70.642 52.86ZM110.57 44.31C110.57 44.73 110.42 45.75 110.12 47.37C109.88 48.93 109.4 50.61 108.68 52.41C108.02 54.15 107.09 55.71 105.89 57.09C104.75 58.47 103.28 59.16 101.48 59.16C99.5603 59.16 98.0303 58.47 96.8903 57.09C95.7503 55.77 94.8803 54.18 94.2803 52.32C93.6803 50.4 93.2903 48.42 93.1103 46.38C92.9303 44.28 92.8403 42.54 92.8403 41.16C92.8403 39.6 92.9303 38.04 93.1103 36.48C93.2903 34.86 93.4103 33.27 93.4703 31.71C93.4703 31.23 93.2303 30.93 92.7503 30.81C92.2703 30.69 91.8203 30.63 91.4003 30.63C90.6803 30.63 90.2303 30.72 90.0503 30.9C89.8703 31.08 89.7503 31.29 89.6903 31.53L89.3303 34.41C89.0903 36.33 88.8203 38.19 88.5203 39.99C88.2803 41.73 87.9803 43.29 87.6203 44.67C87.3203 45.99 86.9303 47.07 86.4503 47.91C86.0303 48.69 85.5203 49.08 84.9203 49.08H84.8303C84.5903 49.08 84.3503 49.02 84.1103 48.9C83.9303 48.78 83.8403 48.48 83.8403 48C83.8403 47.76 83.9003 47.4 84.0203 46.92C84.5003 44.82 84.8003 43.08 84.9203 41.7C85.0403 40.32 85.1303 39.09 85.1903 38.01V37.38C85.1903 37.08 85.1903 36.72 85.1903 36.3C85.2503 35.88 85.2803 35.37 85.2803 34.77V32.43C85.2803 31.77 85.2803 31.08 85.2803 30.36C85.2803 29.64 85.2203 28.86 85.1003 28.02L84.8303 22.71C84.8303 22.35 84.9803 22.02 85.2803 21.72C85.5803 21.42 85.9703 21.15 86.4503 20.91C86.9303 20.67 87.4403 20.49 87.9803 20.37C88.5203 20.25 89.0003 20.19 89.4203 20.19C90.4403 20.19 90.9503 20.85 90.9503 22.17V22.62L90.8603 24.6V25.14C90.8603 25.56 90.9503 25.83 91.1303 25.95C91.3103 26.01 91.6703 26.1 92.2103 26.22H92.4803C92.9603 26.28 93.7403 26.34 94.8203 26.4C95.9003 26.46 96.9803 26.58 98.0603 26.76C99.1403 26.94 100.07 27.24 100.85 27.66C101.69 28.02 102.11 28.56 102.11 29.28C102.11 29.52 102.05 29.88 101.93 30.36C101.81 30.78 101.66 31.23 101.48 31.71C101.3 32.13 101.15 32.52 101.03 32.88C100.91 33.24 100.85 33.48 100.85 33.6C99.7703 37.74 99.2303 42.06 99.2303 46.56C99.2303 46.92 99.2603 47.58 99.3203 48.54C99.3803 49.5 99.5003 50.49 99.6803 51.51C99.8603 52.53 100.13 53.43 100.49 54.21C100.85 54.99 101.3 55.38 101.84 55.38C102.74 55.38 103.55 54.84 104.27 53.76C104.99 52.62 105.62 51.33 106.16 49.89C106.7 48.39 107.12 46.89 107.42 45.39C107.78 43.89 108.02 42.78 108.14 42.06C108.26 41.4 108.44 41.01 108.68 40.89C108.98 40.71 109.25 40.62 109.49 40.62C110.33 40.62 110.75 41.16 110.75 42.24C110.75 42.36 110.72 42.69 110.66 43.23C110.66 43.71 110.63 44.07 110.57 44.31ZM162.141 3.18C162.081 3.24 161.991 3.39 161.871 3.63C161.811 3.87 161.781 4.29 161.781 4.88999C161.781 5.73 161.901 6.54 162.141 7.32V37.11C162.141 40.17 161.841 43.11 161.241 45.93C160.641 48.75 159.591 51.27 158.091 53.49C156.651 55.65 154.641 57.36 152.061 58.62C149.541 59.94 146.301 60.6 142.341 60.6H141.171C137.751 60.6 134.961 60.12 132.801 59.16C130.701 58.26 129.051 57.09 127.851 55.65C126.651 54.21 125.841 52.65 125.421 50.97C125.001 49.23 124.791 47.58 124.791 46.02C124.791 44.7 124.971 43.44 125.331 42.24C125.631 40.98 126.111 39.9 126.771 39C127.371 38.04 128.121 37.29 129.021 36.75C129.921 36.15 130.941 35.85 132.081 35.85C133.161 35.85 133.851 36.15 134.151 36.75C134.451 37.29 134.601 37.86 134.601 38.46C134.601 39.78 134.331 40.89 133.791 41.79C133.251 42.63 132.651 43.38 131.991 44.04C131.391 44.7 130.821 45.36 130.281 46.02C129.741 46.68 129.471 47.49 129.471 48.45C129.471 51.33 130.431 53.4 132.351 54.66C134.271 55.92 136.671 56.55 139.551 56.55C142.071 56.55 144.261 56.04 146.121 55.02C147.981 54 149.511 52.71 150.711 51.15C151.971 49.59 152.901 47.91 153.501 46.11C154.101 44.25 154.401 42.51 154.401 40.89L153.051 40.98C150.891 40.98 149.001 40.5 147.381 39.54C145.821 38.52 144.501 37.26 143.421 35.76C142.401 34.26 141.621 32.64 141.081 30.9C140.601 29.16 140.361 27.54 140.361 26.04V22.89C140.361 21.75 140.511 20.43 140.811 18.93C141.111 17.37 141.531 15.78 142.071 14.16C142.611 12.48 143.271 10.86 144.051 9.3C144.831 7.68 145.671 6.24 146.571 4.98C147.471 3.72 148.431 2.7 149.451 1.92C150.471 1.14 151.521 0.75 152.601 0.75C153.021 0.75 153.501 0.839999 154.041 1.02L160.341 1.47C160.761 1.53 161.151 1.68 161.511 1.92C161.931 2.16 162.141 2.58 162.141 3.18ZM154.401 13.98C154.521 13.5 154.641 13.05 154.761 12.63C154.881 12.21 154.941 11.73 154.941 11.19C154.941 10.41 154.731 9.72 154.311 9.12C153.951 8.46 153.261 8.13 152.241 8.13C150.921 8.13 149.841 8.67 149.001 9.75C148.161 10.83 147.501 12.12 147.021 13.62C146.601 15.12 146.301 16.68 146.121 18.3C145.941 19.92 145.851 21.24 145.851 22.26C145.851 23.04 145.911 24.18 146.031 25.68C146.151 27.12 146.421 28.56 146.841 30C147.321 31.44 147.951 32.7 148.731 33.78C149.571 34.86 150.681 35.4 152.061 35.4C152.181 35.4 152.511 35.37 153.051 35.31C153.651 35.25 154.101 35.16 154.401 35.04V13.98ZM184.14 37.38C183.24 38.64 182.49 40.05 181.89 41.61C181.35 43.11 180.87 44.7 180.45 46.38C180.03 48 179.67 49.65 179.37 51.33C179.13 52.95 178.86 54.51 178.56 56.01C178.44 56.37 177.96 56.61 177.12 56.73C176.34 56.85 175.77 56.91 175.41 56.91C174.33 56.91 173.43 56.85 172.71 56.73C172.05 56.61 171.54 56.34 171.18 55.92C170.82 55.44 170.55 54.75 170.37 53.85C170.19 52.89 170.04 51.63 169.92 50.07L171.09 23.34C171.09 22.56 171.51 22.17 172.35 22.17C172.65 22.17 173.07 22.23 173.61 22.35C174.15 22.41 174.72 22.53 175.32 22.71C175.92 22.89 176.43 23.13 176.85 23.43C177.27 23.67 177.48 23.97 177.48 24.33V42.6C177.54 42.54 177.63 42.3 177.75 41.88C178.17 40.8 178.68 39.48 179.28 37.92C179.88 36.3 180.54 34.77 181.26 33.33C181.98 31.89 182.73 30.66 183.51 29.64C184.35 28.62 185.19 28.11 186.03 28.11C187.11 28.11 187.92 28.38 188.46 28.92C189.06 29.4 189.51 30.03 189.81 30.81C190.11 31.59 190.29 32.43 190.35 33.33C190.41 34.23 190.44 35.1 190.44 35.94C190.44 36.54 190.38 37.53 190.26 38.91C190.14 40.29 190.08 42.36 190.08 45.12C190.08 46.68 190.23 48.09 190.53 49.35C190.83 50.61 191.43 51.24 192.33 51.24C192.99 51.24 193.59 50.94 194.13 50.34C194.67 49.74 195.15 48.99 195.57 48.09C196.05 47.19 196.44 46.23 196.74 45.21C197.04 44.19 197.22 43.23 197.28 42.33C197.34 41.19 197.79 40.62 198.63 40.62C199.17 40.62 199.53 40.8 199.71 41.16C199.89 41.52 199.98 41.94 199.98 42.42V42.6C199.92 43.8 199.68 45.15 199.26 46.65C198.9 48.15 198.33 49.56 197.55 50.88C196.83 52.2 195.87 53.31 194.67 54.21C193.47 55.11 192 55.56 190.26 55.56C187.56 55.56 185.82 54.6 185.04 52.68C184.32 50.7 183.96 47.79 183.96 43.95L184.14 37.38ZM220.562 51.42C220.562 52.86 220.082 53.97 219.122 54.75C218.162 55.53 217.052 56.1 215.792 56.46C214.592 56.82 213.362 57.03 212.102 57.09C210.902 57.21 210.032 57.27 209.492 57.27C208.652 57.27 207.602 57.18 206.342 57C205.142 56.82 203.942 56.55 202.742 56.19C201.602 55.77 200.612 55.2 199.772 54.48C198.992 53.76 198.602 52.86 198.602 51.78C198.602 51.12 198.842 50.67 199.322 50.43C199.862 50.13 200.372 49.98 200.852 49.98C201.512 49.98 202.142 50.22 202.742 50.7C203.402 51.18 204.062 51.69 204.722 52.23C205.442 52.77 206.222 53.28 207.062 53.76C207.902 54.24 208.862 54.48 209.942 54.48C210.422 54.48 211.052 54.33 211.832 54.03C212.672 53.67 213.092 53.07 213.092 52.23C213.092 51.39 212.732 50.58 212.012 49.8C211.352 49.02 210.482 48.21 209.402 47.37C208.382 46.53 207.272 45.66 206.072 44.76C204.872 43.86 203.732 42.9 202.652 41.88C201.632 40.8 200.762 39.63 200.042 38.37C199.382 37.11 199.052 35.73 199.052 34.23C199.052 32.13 199.712 30.36 201.032 28.92C202.412 27.48 204.002 26.34 205.802 25.5C207.662 24.66 209.552 24.06 211.472 23.7C213.392 23.34 214.892 23.16 215.972 23.16C216.992 23.16 218.012 23.37 219.032 23.79C220.052 24.21 220.562 25.02 220.562 26.22C220.562 26.58 220.472 27.12 220.292 27.84C220.172 28.5 219.932 29.16 219.572 29.82C219.272 30.48 218.852 31.08 218.312 31.62C217.772 32.1 217.082 32.34 216.242 32.34C216.002 32.34 215.762 32.25 215.522 32.07C215.282 31.83 215.012 31.59 214.712 31.35C214.412 31.05 214.082 30.81 213.722 30.63C213.422 30.39 213.062 30.27 212.642 30.27C210.542 30.27 209.072 30.9 208.232 32.16C207.392 33.36 206.972 34.65 206.972 36.03C206.972 37.23 207.662 38.49 209.042 39.81C210.482 41.13 212.042 42.45 213.722 43.77C215.462 45.09 217.022 46.41 218.402 47.73C219.842 48.99 220.562 50.22 220.562 51.42ZM223.85 40.71C223.91 37.65 224 34.53 224.12 31.35C224.24 28.17 224.36 25.23 224.48 22.53C224.48 22.05 224 21.72 223.04 21.54C222.08 21.36 221 21.18 219.8 21C218.6 20.82 217.52 20.55 216.56 20.19C215.6 19.77 215.12 19.11 215.12 18.21C215.12 17.43 215.9 16.98 217.46 16.86C219.02 16.74 221.33 16.68 224.39 16.68C224.63 16.68 224.78 16.32 224.84 15.6C224.96 14.88 225.02 13.98 225.02 12.9C225.08 11.76 225.11 10.56 225.11 9.3C225.17 8.04 225.23 6.87 225.29 5.79C225.35 4.65 225.44 3.72 225.56 3C225.74 2.28 225.95 1.92 226.19 1.92C226.49 1.92 227.03 1.98 227.81 2.1C228.59 2.22 229.4 2.4 230.24 2.64C231.08 2.82 231.8 3.06 232.4 3.36C233.06 3.66 233.39 3.99 233.39 4.35L232.4 16.05C232.4 16.41 232.7 16.68 233.3 16.86C233.96 16.98 234.77 17.07 235.73 17.13C236.75 17.13 237.8 17.13 238.88 17.13C240.02 17.13 241.07 17.22 242.03 17.4C243.05 17.58 243.86 17.88 244.46 18.3C245.12 18.66 245.45 19.23 245.45 20.01C245.45 20.13 245.39 20.34 245.27 20.64C245.15 20.88 245 21 244.82 21C244.7 21 244.52 20.91 244.28 20.73C244.1 20.55 243.56 20.46 242.66 20.46C242.42 20.46 241.76 20.49 240.68 20.55C239.6 20.61 238.46 20.7 237.26 20.82C236.06 20.94 234.95 21.09 233.93 21.27C232.97 21.39 232.43 21.57 232.31 21.81C232.25 21.93 232.16 22.65 232.04 23.97C231.98 25.23 231.89 26.91 231.77 29.01C231.71 31.11 231.65 33.54 231.59 36.3C231.53 39 231.5 41.85 231.5 44.85C231.5 45.99 231.56 47.1 231.68 48.18C231.8 49.26 231.98 50.25 232.22 51.15C232.46 51.99 232.76 52.68 233.12 53.22C233.54 53.76 234.02 54.03 234.56 54.03C235.34 54.03 236.06 53.7 236.72 53.04C237.38 52.38 237.98 51.48 238.52 50.34C239.06 49.2 239.54 47.91 239.96 46.47C240.38 45.03 240.74 43.56 241.04 42.06C241.22 41.16 241.43 40.53 241.67 40.17C241.91 39.75 242.27 39.54 242.75 39.54C243.17 39.54 243.53 39.69 243.83 39.99C244.19 40.23 244.37 40.83 244.37 41.79C244.37 42.39 244.34 42.78 244.28 42.96C244.1 44.04 243.74 45.54 243.2 47.46C242.72 49.32 242.03 51.18 241.13 53.04C240.29 54.84 239.24 56.43 237.98 57.81C236.72 59.19 235.25 59.88 233.57 59.88C231.95 59.88 230.54 59.4 229.34 58.44C228.14 57.54 227.12 56.28 226.28 54.66C225.5 52.98 224.9 51.03 224.48 48.81C224.06 46.53 223.85 44.1 223.85 41.52V40.71ZM278.608 47.19C278.488 48.03 278.188 49.02 277.708 50.16C277.228 51.3 276.598 52.41 275.818 53.49C275.098 54.51 274.228 55.38 273.208 56.1C272.248 56.82 271.168 57.18 269.968 57.18C268.168 57.18 266.578 56.49 265.198 55.11C263.878 53.73 263.068 51.78 262.768 49.26C262.408 50.22 261.988 51.33 261.508 52.59C261.028 53.85 260.428 55.02 259.708 56.1C258.988 57.18 258.148 58.08 257.188 58.8C256.288 59.58 255.208 59.97 253.948 59.97C253.588 59.97 253.318 59.94 253.138 59.88C252.958 59.82 252.748 59.73 252.508 59.61C252.328 59.55 252.088 59.49 251.788 59.43C251.548 59.37 251.188 59.34 250.708 59.34C249.268 59.34 248.038 58.86 247.018 57.9C246.058 57 245.278 55.83 244.678 54.39C244.078 52.95 243.628 51.39 243.328 49.71C243.088 47.97 242.968 46.35 242.968 44.85C242.968 41.25 243.148 37.83 243.508 34.59C243.928 31.35 244.588 28.5 245.488 26.04C246.388 23.52 247.558 21.54 248.998 20.1C250.438 18.6 252.178 17.85 254.218 17.85C255.418 17.85 256.318 17.97 256.918 18.21C257.578 18.39 258.178 18.63 258.718 18.93C259.258 19.17 259.828 19.44 260.428 19.74C261.088 20.04 261.988 20.28 263.128 20.46C264.388 21.18 265.258 22.05 265.738 23.07C266.278 24.03 266.608 25.08 266.728 26.22C266.908 27.36 266.968 28.56 266.908 29.82C266.848 31.02 266.908 32.22 267.088 33.42C267.088 33.48 267.208 33.57 267.448 33.69C267.748 33.81 268.078 33.96 268.438 34.14C268.798 34.26 269.098 34.47 269.338 34.77C269.638 35.01 269.788 35.34 269.788 35.76V36.12C269.188 37.68 268.828 39.06 268.708 40.26C268.588 41.46 268.528 42.9 268.528 44.58C268.528 45.42 268.558 46.35 268.618 47.37C268.738 48.33 268.888 49.26 269.068 50.16C269.308 51 269.638 51.72 270.058 52.32C270.478 52.86 271.018 53.13 271.678 53.13C272.398 53.13 273.028 52.77 273.568 52.05C274.168 51.33 274.648 50.52 275.008 49.62C275.428 48.66 275.758 47.7 275.998 46.74C276.298 45.78 276.478 45.06 276.538 44.58C276.658 43.86 276.958 43.5 277.438 43.5C277.738 43.5 278.008 43.68 278.248 44.04C278.548 44.34 278.698 44.91 278.698 45.75C278.698 45.99 278.698 46.23 278.698 46.47C278.698 46.65 278.668 46.89 278.608 47.19ZM261.958 32.61C261.958 31.95 261.898 31.17 261.778 30.27C261.658 29.37 261.448 28.53 261.148 27.75C260.848 26.97 260.398 26.31 259.798 25.77C259.198 25.23 258.388 24.96 257.368 24.96C255.688 24.96 254.308 25.74 253.228 27.3C252.208 28.8 251.398 30.6 250.798 32.7C250.198 34.74 249.808 36.87 249.628 39.09C249.448 41.25 249.358 42.96 249.358 44.22C249.358 45.18 249.388 46.35 249.448 47.73C249.568 49.05 249.748 50.31 249.988 51.51C250.228 52.71 250.558 53.73 250.978 54.57C251.458 55.41 252.058 55.83 252.778 55.83C254.518 55.83 255.838 55.17 256.738 53.85C257.698 52.47 258.418 50.79 258.898 48.81C259.378 46.77 259.708 44.61 259.888 42.33C260.128 39.99 260.338 37.86 260.518 35.94C260.638 34.92 260.908 34.29 261.328 34.05C261.748 33.75 261.958 33.54 261.958 33.42V32.61ZM307.163 59.34C307.163 59.94 306.893 60.36 306.353 60.6C305.813 60.84 305.303 60.96 304.823 60.96L303.023 60.78C302.723 60.78 302.573 60.96 302.573 61.32L302.483 62.4C302.543 64.02 302.573 66.06 302.573 68.52C302.573 70.98 302.573 73.35 302.573 75.63C302.573 78.03 302.483 80.37 302.303 82.65C302.183 84.99 301.853 87.06 301.313 88.86C300.773 90.72 299.993 92.19 298.973 93.27C298.013 94.41 296.663 94.98 294.923 94.98C293.423 94.98 291.833 94.89 290.153 94.71C288.533 94.59 287.033 94.23 285.653 93.63C284.333 93.03 283.223 92.13 282.323 90.93C281.483 89.79 281.063 88.23 281.063 86.25C281.063 84.27 281.273 82.23 281.693 80.13C282.173 78.09 282.833 76.08 283.673 74.1C284.513 72.18 285.503 70.32 286.643 68.52C287.843 66.78 289.133 65.22 290.513 63.84C291.233 63.12 292.013 62.37 292.853 61.59C293.753 60.87 294.533 60.27 295.193 59.79V59.7C295.313 58.44 295.403 57.18 295.463 55.92C295.523 54.66 295.553 53.37 295.553 52.05C295.253 52.59 294.893 53.34 294.473 54.3C294.053 55.2 293.543 56.07 292.943 56.91C292.403 57.75 291.773 58.47 291.053 59.07C290.333 59.73 289.523 60.06 288.623 60.06C288.143 60.06 287.723 59.97 287.363 59.79C287.003 59.61 286.493 59.52 285.833 59.52C284.153 59.4 282.743 58.95 281.603 58.17C280.523 57.39 279.653 56.31 278.993 54.93C278.393 53.55 277.973 51.93 277.733 50.07C277.493 48.15 277.373 46.02 277.373 43.68C277.373 40.86 277.523 37.95 277.823 34.95C278.183 31.95 278.783 29.22 279.623 26.76C280.463 24.24 281.573 22.2 282.953 20.64C284.393 19.02 286.193 18.21 288.353 18.21C288.593 18.21 288.893 18.3 289.253 18.48C289.673 18.66 290.093 18.87 290.513 19.11C290.993 19.29 291.443 19.5 291.863 19.74C292.343 19.92 292.703 20.04 292.943 20.1C294.143 20.34 295.253 20.64 296.273 21C297.293 21.36 298.163 21.84 298.883 22.44C299.603 22.98 300.173 23.73 300.593 24.69C301.013 25.59 301.223 26.73 301.223 28.11C301.223 29.07 301.133 29.94 300.953 30.72C300.833 31.5 300.773 32.49 300.773 33.69C300.773 34.17 300.953 34.5 301.313 34.68C301.673 34.86 302.063 35.01 302.483 35.13C302.963 35.25 303.383 35.4 303.743 35.58C304.103 35.7 304.283 36 304.283 36.48C304.283 36.6 304.133 36.9 303.833 37.38C303.593 37.8 303.443 38.07 303.383 38.19C303.203 38.67 303.053 39.45 302.933 40.53C302.813 41.55 302.723 42.69 302.663 43.95C302.603 45.15 302.543 46.41 302.483 47.73C302.483 48.99 302.483 50.13 302.483 51.15C302.483 51.93 302.483 52.98 302.483 54.3C302.483 55.56 302.513 56.61 302.573 57.45H302.933C303.053 57.45 303.173 57.42 303.293 57.36C303.413 57.36 303.503 57.36 303.563 57.36C304.103 57.36 304.823 57.51 305.723 57.81C306.683 58.17 307.163 58.68 307.163 59.34ZM295.643 31.53C295.643 30.87 295.583 30.12 295.463 29.28C295.343 28.44 295.133 27.66 294.833 26.94C294.533 26.16 294.083 25.53 293.483 25.05C292.943 24.51 292.253 24.24 291.413 24.24C290.273 24.24 289.193 24.69 288.173 25.59C287.213 26.49 286.343 27.78 285.563 29.46C284.843 31.08 284.243 33.09 283.763 35.49C283.343 37.83 283.133 40.5 283.133 43.5C283.133 44.76 283.163 46.08 283.223 47.46C283.343 48.78 283.493 49.98 283.673 51.06C283.913 52.14 284.243 53.04 284.663 53.76C285.143 54.48 285.743 54.84 286.463 54.84C287.723 54.84 288.833 54.3 289.793 53.22C290.753 52.14 291.533 50.82 292.133 49.26C292.793 47.64 293.273 45.99 293.573 44.31C293.933 42.57 294.143 41.07 294.203 39.81C294.263 38.07 294.353 36.9 294.473 36.3C294.593 35.64 294.713 35.22 294.833 35.04C295.193 34.56 295.403 33.99 295.463 33.33C295.583 32.67 295.643 32.07 295.643 31.53ZM295.283 62.85C293.903 63.81 292.583 65.16 291.323 66.9C290.123 68.64 289.073 70.53 288.173 72.57C287.273 74.61 286.553 76.68 286.013 78.78C285.533 80.88 285.293 82.77 285.293 84.45C285.293 85.05 285.353 85.71 285.473 86.43C285.593 87.15 285.773 87.81 286.013 88.41C286.313 89.07 286.703 89.61 287.183 90.03C287.723 90.45 288.353 90.66 289.073 90.66C290.333 90.66 291.353 90.12 292.133 89.04C292.973 88.02 293.603 86.79 294.023 85.35C294.503 83.91 294.803 82.44 294.923 80.94C295.103 79.44 295.193 78.24 295.193 77.34C295.193 77.16 295.193 76.89 295.193 76.53C295.193 76.17 295.193 75.48 295.193 74.46C295.253 73.44 295.283 72 295.283 70.14C295.283 68.34 295.283 65.91 295.283 62.85ZM335.384 44.31C335.384 44.73 335.234 45.75 334.934 47.37C334.694 48.93 334.214 50.61 333.494 52.41C332.834 54.15 331.904 55.71 330.704 57.09C329.564 58.47 328.094 59.16 326.294 59.16C324.374 59.16 322.844 58.47 321.704 57.09C320.564 55.77 319.694 54.18 319.094 52.32C318.494 50.4 318.104 48.42 317.924 46.38C317.744 44.28 317.654 42.54 317.654 41.16C317.654 39.6 317.744 38.04 317.924 36.48C318.104 34.86 318.224 33.27 318.284 31.71C318.284 31.23 318.044 30.93 317.564 30.81C317.084 30.69 316.634 30.63 316.214 30.63C315.494 30.63 315.044 30.72 314.864 30.9C314.684 31.08 314.564 31.29 314.504 31.53L314.144 34.41C313.904 36.33 313.634 38.19 313.334 39.99C313.094 41.73 312.794 43.29 312.434 44.67C312.134 45.99 311.744 47.07 311.264 47.91C310.844 48.69 310.334 49.08 309.734 49.08H309.644C309.404 49.08 309.164 49.02 308.924 48.9C308.744 48.78 308.654 48.48 308.654 48C308.654 47.76 308.714 47.4 308.834 46.92C309.314 44.82 309.614 43.08 309.734 41.7C309.854 40.32 309.944 39.09 310.004 38.01V37.38C310.004 37.08 310.004 36.72 310.004 36.3C310.064 35.88 310.094 35.37 310.094 34.77V32.43C310.094 31.77 310.094 31.08 310.094 30.36C310.094 29.64 310.034 28.86 309.914 28.02L309.644 22.71C309.644 22.35 309.794 22.02 310.094 21.72C310.394 21.42 310.784 21.15 311.264 20.91C311.744 20.67 312.254 20.49 312.794 20.37C313.334 20.25 313.814 20.19 314.234 20.19C315.254 20.19 315.764 20.85 315.764 22.17V22.62L315.674 24.6V25.14C315.674 25.56 315.764 25.83 315.944 25.95C316.124 26.01 316.484 26.1 317.024 26.22H317.294C317.774 26.28 318.554 26.34 319.634 26.4C320.714 26.46 321.794 26.58 322.874 26.76C323.954 26.94 324.884 27.24 325.664 27.66C326.504 28.02 326.924 28.56 326.924 29.28C326.924 29.52 326.864 29.88 326.744 30.36C326.624 30.78 326.474 31.23 326.294 31.71C326.114 32.13 325.964 32.52 325.844 32.88C325.724 33.24 325.664 33.48 325.664 33.6C324.584 37.74 324.044 42.06 324.044 46.56C324.044 46.92 324.074 47.58 324.134 48.54C324.194 49.5 324.314 50.49 324.494 51.51C324.674 52.53 324.944 53.43 325.304 54.21C325.664 54.99 326.114 55.38 326.654 55.38C327.554 55.38 328.364 54.84 329.084 53.76C329.804 52.62 330.434 51.33 330.974 49.89C331.514 48.39 331.934 46.89 332.234 45.39C332.594 43.89 332.834 42.78 332.954 42.06C333.074 41.4 333.254 41.01 333.494 40.89C333.794 40.71 334.064 40.62 334.304 40.62C335.144 40.62 335.564 41.16 335.564 42.24C335.564 42.36 335.534 42.69 335.474 43.23C335.474 43.71 335.444 44.07 335.384 44.31ZM369.758 47.19C369.638 48.03 369.338 49.02 368.858 50.16C368.378 51.3 367.748 52.41 366.968 53.49C366.248 54.51 365.378 55.38 364.358 56.1C363.398 56.82 362.318 57.18 361.118 57.18C359.318 57.18 357.728 56.49 356.348 55.11C355.028 53.73 354.218 51.78 353.918 49.26C353.558 50.22 353.138 51.33 352.658 52.59C352.178 53.85 351.578 55.02 350.858 56.1C350.138 57.18 349.298 58.08 348.338 58.8C347.438 59.58 346.358 59.97 345.098 59.97C344.738 59.97 344.468 59.94 344.288 59.88C344.108 59.82 343.898 59.73 343.658 59.61C343.478 59.55 343.238 59.49 342.938 59.43C342.698 59.37 342.338 59.34 341.858 59.34C340.418 59.34 339.188 58.86 338.168 57.9C337.208 57 336.428 55.83 335.828 54.39C335.228 52.95 334.778 51.39 334.478 49.71C334.238 47.97 334.118 46.35 334.118 44.85C334.118 41.25 334.298 37.83 334.658 34.59C335.078 31.35 335.738 28.5 336.638 26.04C337.538 23.52 338.708 21.54 340.148 20.1C341.588 18.6 343.328 17.85 345.368 17.85C346.568 17.85 347.468 17.97 348.068 18.21C348.728 18.39 349.328 18.63 349.868 18.93C350.408 19.17 350.978 19.44 351.578 19.74C352.238 20.04 353.138 20.28 354.278 20.46C355.538 21.18 356.408 22.05 356.888 23.07C357.428 24.03 357.758 25.08 357.878 26.22C358.058 27.36 358.118 28.56 358.058 29.82C357.998 31.02 358.058 32.22 358.238 33.42C358.238 33.48 358.358 33.57 358.598 33.69C358.898 33.81 359.228 33.96 359.588 34.14C359.948 34.26 360.248 34.47 360.488 34.77C360.788 35.01 360.938 35.34 360.938 35.76V36.12C360.338 37.68 359.978 39.06 359.858 40.26C359.738 41.46 359.678 42.9 359.678 44.58C359.678 45.42 359.708 46.35 359.768 47.37C359.888 48.33 360.038 49.26 360.218 50.16C360.458 51 360.788 51.72 361.208 52.32C361.628 52.86 362.168 53.13 362.828 53.13C363.548 53.13 364.178 52.77 364.718 52.05C365.318 51.33 365.798 50.52 366.158 49.62C366.578 48.66 366.908 47.7 367.148 46.74C367.448 45.78 367.628 45.06 367.688 44.58C367.808 43.86 368.108 43.5 368.588 43.5C368.888 43.5 369.158 43.68 369.398 44.04C369.698 44.34 369.848 44.91 369.848 45.75C369.848 45.99 369.848 46.23 369.848 46.47C369.848 46.65 369.818 46.89 369.758 47.19ZM353.108 32.61C353.108 31.95 353.048 31.17 352.928 30.27C352.808 29.37 352.598 28.53 352.298 27.75C351.998 26.97 351.548 26.31 350.948 25.77C350.348 25.23 349.538 24.96 348.518 24.96C346.838 24.96 345.458 25.74 344.378 27.3C343.358 28.8 342.548 30.6 341.948 32.7C341.348 34.74 340.958 36.87 340.778 39.09C340.598 41.25 340.508 42.96 340.508 44.22C340.508 45.18 340.538 46.35 340.598 47.73C340.718 49.05 340.898 50.31 341.138 51.51C341.378 52.71 341.708 53.73 342.128 54.57C342.608 55.41 343.208 55.83 343.928 55.83C345.668 55.83 346.988 55.17 347.888 53.85C348.848 52.47 349.568 50.79 350.048 48.81C350.528 46.77 350.858 44.61 351.038 42.33C351.278 39.99 351.488 37.86 351.668 35.94C351.788 34.92 352.058 34.29 352.478 34.05C352.898 33.75 353.108 33.54 353.108 33.42V32.61ZM398.673 34.86C397.833 36.48 397.053 38.19 396.333 39.99C395.613 41.79 395.073 43.2 394.713 44.22C394.653 44.52 394.473 45.15 394.173 46.11C393.933 47.07 393.633 48.15 393.273 49.35C392.973 50.49 392.703 51.63 392.463 52.77C392.223 53.91 392.103 54.84 392.103 55.56C392.103 55.86 391.833 56.13 391.293 56.37C390.753 56.61 390.063 56.73 389.223 56.73C387.903 56.73 386.853 56.55 386.073 56.19C385.293 55.83 384.693 55.26 384.273 54.48C383.913 53.64 383.673 52.56 383.553 51.24C383.493 49.92 383.463 48.33 383.463 46.47V39.72C383.463 39.24 383.433 38.76 383.373 38.28C383.373 37.8 383.283 37.5 383.103 37.38C382.803 37.5 382.413 38.28 381.933 39.72C381.513 41.16 381.093 42.93 380.673 45.03C380.313 47.07 379.983 49.23 379.683 51.51C379.383 53.79 379.233 55.83 379.233 57.63C379.233 58.29 378.873 58.68 378.153 58.8C377.493 58.92 376.743 58.98 375.903 58.98C375.663 58.98 375.243 58.92 374.643 58.8C374.103 58.74 373.533 58.65 372.933 58.53C372.393 58.41 371.883 58.23 371.403 57.99C370.923 57.81 370.623 57.57 370.503 57.27C370.203 56.49 369.963 55.2 369.783 53.4C369.663 51.6 369.603 48.81 369.603 45.03C369.603 42.81 369.633 40.23 369.693 37.29C369.813 34.35 369.933 30.9 370.053 26.94C370.053 26.4 370.023 25.71 369.963 24.87C369.903 23.97 369.873 23.46 369.873 23.34C369.873 22.86 370.053 22.59 370.413 22.53C370.833 22.41 371.133 22.35 371.313 22.35C371.733 22.35 372.213 22.41 372.753 22.53C373.353 22.59 373.923 22.68 374.463 22.8C375.063 22.92 375.603 23.07 376.083 23.25C376.563 23.37 376.893 23.49 377.073 23.61V45.3C377.373 44.1 377.703 42.72 378.063 41.16C378.483 39.54 378.933 37.95 379.413 36.39C379.953 34.83 380.523 33.39 381.123 32.07C381.723 30.75 382.353 29.79 383.013 29.19C383.253 29.01 383.703 28.89 384.363 28.83C385.023 28.71 385.563 28.65 385.983 28.65C386.283 28.65 386.643 28.71 387.063 28.83C387.543 28.89 387.993 29.01 388.413 29.19C388.833 29.37 389.193 29.61 389.493 29.91C389.853 30.15 390.063 30.45 390.123 30.81V45.39V46.2C390.123 46.56 390.183 46.74 390.303 46.74C390.423 46.74 390.753 45.93 391.293 44.31C391.893 42.69 392.583 40.77 393.363 38.55C394.143 36.33 394.983 34.05 395.883 31.71C396.783 29.37 397.593 27.51 398.313 26.13C398.433 25.89 398.823 25.77 399.483 25.77C400.203 25.71 400.833 25.68 401.373 25.68C401.793 25.68 402.363 25.83 403.083 26.13C403.803 26.37 404.493 26.73 405.153 27.21C405.873 27.69 406.473 28.23 406.953 28.83C407.493 29.43 407.763 30.06 407.763 30.72C407.763 30.84 407.583 31.2 407.223 31.8C406.863 32.34 406.623 32.91 406.503 33.51C406.083 35.19 405.783 36.84 405.603 38.46C405.483 40.08 405.423 42.15 405.423 44.67C405.423 45.75 405.453 46.83 405.513 47.91C405.633 48.99 405.783 49.98 405.963 50.88C406.203 51.72 406.503 52.41 406.863 52.95C407.223 53.49 407.703 53.76 408.303 53.76C409.143 53.76 409.893 53.49 410.553 52.95C411.213 52.35 411.783 51.57 412.263 50.61C412.743 49.65 413.163 48.54 413.523 47.28C413.883 45.96 414.183 44.61 414.423 43.23C414.723 41.79 415.263 41.07 416.043 41.07C416.523 41.07 416.823 41.19 416.943 41.43C417.123 41.67 417.213 42.21 417.213 43.05C417.213 43.53 417.183 43.86 417.123 44.04C417.063 44.82 416.793 46.05 416.313 47.73C415.893 49.35 415.263 51 414.423 52.68C413.643 54.3 412.653 55.74 411.453 57C410.253 58.2 408.873 58.8 407.313 58.8C405.453 58.8 403.923 58.35 402.723 57.45C401.523 56.61 400.593 55.47 399.933 54.03C399.273 52.53 398.793 50.82 398.493 48.9C398.253 46.98 398.133 44.97 398.133 42.87V42.24L398.673 34.86Z" fill="#FCA4CE"/>
</svg>
