<svg width="23" height="22" viewBox="0 0 23 22" fill="none" xmlns="http://www.w3.org/2000/svg">
<path d="M22.967 8.35397C22.8877 8.10934 22.6769 7.93105 22.4231 7.89412L15.293 6.85517L12.1042 0.376614C11.9908 0.145988 11.7565 0 11.5 0C11.2435 0 11.0093 0.145988 10.8958 0.376614L7.70689 6.85517L0.576923 7.89412C0.323161 7.93105 0.112253 8.10934 0.0330115 8.35393C-0.0462753 8.59856 0.0198495 8.86707 0.203534 9.04657L5.3627 14.0894L4.14496 21.2102C4.10157 21.4637 4.20552 21.7198 4.41301 21.871C4.53039 21.9565 4.66942 22 4.80913 22C4.9164 22 5.02404 21.9744 5.12259 21.9224L11.5 18.5604L17.8771 21.9223C18.1042 22.042 18.3793 22.0221 18.5868 21.8709C18.7942 21.7198 18.8982 21.4636 18.8549 21.2101L17.6367 14.0894L22.7965 9.04653C22.9801 8.86707 23.0463 8.59856 22.967 8.35397Z" fill="#FFD649"/>
</svg>
