<svg width="33" height="33" viewBox="0 0 33 33" fill="none" xmlns="http://www.w3.org/2000/svg">
<path d="M24.0672 0H8.9328C4.00717 0 0 4.00717 0 8.9328V24.0675C0 28.9928 4.00717 33 8.9328 33H24.0675C28.9928 33 33 28.9928 33 24.0675V8.9328C33 4.00717 28.9928 0 24.0672 0V0ZM16.5 25.5232C11.5245 25.5232 7.47681 21.4755 7.47681 16.5C7.47681 11.5245 11.5245 7.47681 16.5 7.47681C21.4755 7.47681 25.5232 11.5245 25.5232 16.5C25.5232 21.4755 21.4755 25.5232 16.5 25.5232ZM25.739 9.60477C24.2686 9.60477 23.0727 8.40887 23.0727 6.93853C23.0727 5.46819 24.2686 4.27203 25.739 4.27203C27.2093 4.27203 28.4054 5.46819 28.4054 6.93853C28.4054 8.40887 27.2093 9.60477 25.739 9.60477Z" fill="#FF64AE"/>
<path d="M16.5002 9.41107C12.5917 9.41107 9.41162 12.5909 9.41162 16.4997C9.41162 20.4081 12.5917 23.5882 16.5002 23.5882C20.4089 23.5882 23.5888 20.4081 23.5888 16.4997C23.5888 12.5909 20.4089 9.41107 16.5002 9.41107ZM25.7392 6.20654C25.3358 6.20654 25.0075 6.53485 25.0075 6.93819C25.0075 7.34152 25.3358 7.66983 25.7392 7.66983C26.1427 7.66983 26.4711 7.34177 26.4711 6.93819C26.4711 6.5346 26.1427 6.20654 25.7392 6.20654Z" fill="#FF64AE"/>
</svg>
